<svg width="85" height="85" viewBox="0 0 85 85" fill="none" xmlns="http://www.w3.org/2000/svg">
<g clip-path="url(#clip0_25_627)">
<path d="M21.1077 3.44556C21.1868 3.44622 21.1868 3.44622 21.2671 3.44688C21.3521 3.44688 21.3521 3.44688 21.4384 3.44755C21.4982 3.44755 21.558 3.44821 21.6191 3.44888C21.6795 3.44954 21.7393 3.44954 21.801 3.44954C21.9491 3.45087 22.0978 3.45153 22.2459 3.45286C22.2459 3.47478 22.2459 3.49669 22.2459 3.51927C22.2971 3.52259 22.3475 3.52591 22.4 3.52989C22.6337 3.54517 22.8675 3.5611 23.1012 3.57771C23.1809 3.58302 23.2613 3.58833 23.3436 3.59364C23.7567 3.62286 24.1544 3.66337 24.5582 3.75899C24.7196 3.78821 24.8716 3.78954 25.035 3.78489C25.035 3.82872 25.035 3.87255 25.035 3.91771C25.1499 3.91173 25.1499 3.91173 25.2674 3.90575C25.5337 3.90376 25.7329 3.96552 25.974 4.07376C26.1174 4.1322 26.1174 4.1322 26.3631 4.11692C26.3631 4.16075 26.3631 4.20458 26.3631 4.24974C26.4428 4.25837 26.5218 4.26634 26.6042 4.27497C26.8466 4.30552 27.0657 4.35466 27.2928 4.44896C27.3147 4.49278 27.3366 4.53661 27.3592 4.58177C27.4263 4.5904 27.4934 4.59837 27.5624 4.607C27.8234 4.64817 27.9748 4.71591 28.2019 4.8381C28.3752 4.92376 28.5505 4.98618 28.7332 5.05126C29.3893 5.2963 29.9982 5.64427 30.6131 5.9763C30.6131 6.02013 30.6131 6.06396 30.6131 6.10911C30.6669 6.12438 30.7214 6.13966 30.7765 6.1556C31.0667 6.26251 31.319 6.40794 31.5846 6.56599C31.659 6.60915 31.659 6.60915 31.7354 6.65298C31.9937 6.80571 32.1956 6.95646 32.4061 7.17161C32.5615 7.28118 32.7222 7.38013 32.8835 7.47907C33.3271 7.752 33.3271 7.752 33.4022 7.90208C33.44 7.92134 33.4779 7.93993 33.5171 7.95985C33.9945 8.19892 34.3976 8.62259 34.7655 9.00376C34.895 9.12794 35.0398 9.20763 35.1951 9.29661C35.4289 9.48321 35.6494 9.6811 35.8592 9.89427C35.903 9.9381 35.9469 9.98192 35.992 10.0271C36.0445 10.0908 36.0969 10.1546 36.1514 10.2197C36.3426 10.4441 36.5472 10.6526 36.7564 10.8598C36.7896 10.893 36.8228 10.9256 36.8566 10.9588C36.9948 11.0956 37.1335 11.2317 37.2723 11.3672C37.3746 11.4681 37.4762 11.5684 37.5785 11.6693C37.6389 11.7284 37.6993 11.7882 37.7617 11.8493C37.9085 12.0093 38.0101 12.1634 38.117 12.3513C38.2246 12.4649 38.3362 12.5758 38.4491 12.6833C38.7133 12.9363 38.9278 13.1634 39.1131 13.4802C39.1882 13.5685 39.2645 13.6555 39.3415 13.7418C39.5308 13.9537 39.6895 14.1708 39.8436 14.4099C39.9312 14.5215 40.0196 14.6324 40.1092 14.7419C40.3669 15.066 40.6152 15.39 40.8397 15.738C41.017 16.0063 41.1989 16.2653 41.3948 16.5196C41.5197 16.6896 41.6346 16.8643 41.7488 17.0416C41.7899 17.1053 41.8318 17.1691 41.8743 17.2348C41.9686 17.3982 41.9686 17.3982 41.9686 17.531C42.0111 17.5708 42.0536 17.6107 42.0974 17.6518C42.2508 17.8145 42.2767 17.9102 42.3006 18.1286C42.4321 18.1061 42.4321 18.1061 42.5662 18.0622C42.5882 18.0184 42.6101 17.9746 42.6326 17.9294C42.6765 17.9294 42.7203 17.9294 42.7655 17.9294C42.7655 17.8637 42.7655 17.7979 42.7655 17.7302C42.8093 17.6864 42.8531 17.6425 42.8983 17.5974C43.0165 17.4208 43.0895 17.264 43.1639 17.0661C43.2077 17.0661 43.2516 17.0661 43.2967 17.0661C43.304 17.0143 43.3107 16.9626 43.3173 16.9088C43.3631 16.7341 43.3631 16.7341 43.5623 16.6013C43.6314 16.4698 43.6971 16.337 43.7616 16.2029C43.8651 16.0455 43.8651 16.0455 43.9608 15.9372C44.0046 15.9372 44.0484 15.9372 44.0936 15.9372C44.0989 15.902 44.1049 15.8662 44.1102 15.8297C44.1959 15.5587 44.3592 15.3402 44.5584 15.1404C44.6023 15.072 44.6461 15.0036 44.6912 14.9332C44.7351 14.8701 44.7789 14.807 44.8241 14.7419C44.8679 14.7419 44.9117 14.7419 44.9569 14.7419C44.9635 14.7034 44.9701 14.6649 44.9768 14.625C45.0326 14.4471 45.1109 14.3621 45.2391 14.2273C45.4025 14.0486 45.5392 13.8753 45.6628 13.6675C45.8022 13.4344 45.9463 13.2597 46.1522 13.0818C46.196 13.0818 46.2398 13.0818 46.285 13.0818C46.3069 13.016 46.3288 12.9503 46.3514 12.8825C46.5254 12.597 46.718 12.3699 46.9584 12.1375C47.0234 12.0737 47.0885 12.01 47.1536 11.9462C47.2552 11.8473 47.3568 11.749 47.4584 11.6507C47.558 11.5544 47.6563 11.4581 47.7552 11.3612C47.8137 11.3047 47.8728 11.2476 47.9332 11.1892C48.0859 11.0345 48.0859 11.0345 48.1397 10.8485C48.2413 10.6241 48.3901 10.5942 48.6092 10.4919C48.7819 10.3452 48.7819 10.3452 48.9439 10.1745C49.0043 10.1134 49.0648 10.0517 49.1272 9.98856C49.1896 9.92415 49.2527 9.85974 49.3151 9.79466C49.4386 9.66782 49.5628 9.54165 49.687 9.41481C49.7687 9.33114 49.7687 9.33114 49.8523 9.24481C50.2089 8.89817 50.2089 8.89817 50.4686 8.89817C50.4938 8.84173 50.4938 8.84173 50.5191 8.78329C50.6127 8.61263 50.7196 8.49044 50.8544 8.35032C50.8989 8.30384 50.9434 8.25669 50.9885 8.20821C51.1619 8.08005 51.2542 8.07938 51.4647 8.1013C51.4826 8.0588 51.5005 8.0163 51.5185 7.97313C51.5975 7.83567 51.5975 7.83567 51.7967 7.76927C51.7967 7.72544 51.7967 7.68161 51.7967 7.63646C51.8478 7.61919 51.8983 7.60126 51.9501 7.58267C52.1267 7.50497 52.1978 7.44056 52.328 7.30442C52.4382 7.23735 52.5491 7.17095 52.66 7.10521C52.7038 7.06138 52.7476 7.01755 52.7928 6.97239C52.8466 6.95181 52.8997 6.93122 52.9548 6.91063C53.1268 6.8522 53.1268 6.8522 53.2284 6.732C53.3241 6.64036 53.3241 6.64036 53.5897 6.64036C53.6116 6.57462 53.6335 6.50888 53.6561 6.44114C53.7437 6.44114 53.8314 6.44114 53.9217 6.44114C53.9217 6.39731 53.9217 6.35349 53.9217 6.30833C54.1183 6.12638 54.1727 6.10911 54.453 6.10911C54.453 6.06528 54.453 6.02146 54.453 5.9763C54.4955 5.96833 54.538 5.96036 54.5818 5.95173C54.6269 5.93778 54.6721 5.9245 54.7186 5.90989C54.7405 5.86606 54.7624 5.82224 54.785 5.77708C54.8946 5.77708 55.0041 5.77708 55.117 5.77708C55.117 5.73325 55.117 5.68942 55.117 5.64427C55.2266 5.62235 55.3362 5.60044 55.4491 5.57786C55.4491 5.53403 55.4491 5.49021 55.4491 5.44505C55.5586 5.44505 55.6682 5.44505 55.7811 5.44505C55.7811 5.40122 55.7811 5.35739 55.7811 5.31224C55.9743 5.23056 56.1589 5.16747 56.3621 5.11302C56.4691 5.08048 56.4691 5.08048 56.578 5.04661C56.5999 5.00278 56.6218 4.95896 56.6444 4.9138C56.7539 4.9138 56.8635 4.9138 56.9764 4.9138C56.9764 4.86997 56.9764 4.82614 56.9764 4.78099C57.754 4.51802 57.754 4.51802 58.0389 4.44099C58.2328 4.39118 58.2328 4.39118 58.3796 4.31216C58.531 4.23646 58.6684 4.20591 58.8358 4.18333C58.8796 4.20524 58.9234 4.22716 58.9686 4.24974C58.9686 4.20591 58.9686 4.16208 58.9686 4.11692C59.0383 4.10896 59.1087 4.10099 59.1804 4.09235C59.4009 4.05583 59.5616 4.00138 59.7655 3.91771C60.0072 3.86458 60.1267 3.83935 60.3631 3.91771C60.3631 3.87388 60.3631 3.83005 60.3631 3.78489C60.4202 3.78157 60.4773 3.77892 60.5358 3.7756C60.6115 3.77028 60.6878 3.76563 60.7655 3.76032C60.8406 3.75567 60.9156 3.75103 60.992 3.74638C61.2284 3.72513 61.2284 3.72513 61.4568 3.65208C61.7058 3.58169 61.931 3.55911 62.1893 3.5445C62.2723 3.53919 62.3553 3.53454 62.4403 3.52923C62.605 3.52259 62.7697 3.5206 62.9344 3.52192C63.1396 3.5279 63.1396 3.5279 63.2823 3.48673C63.4968 3.4336 63.7133 3.44622 63.9324 3.44888C63.9789 3.44954 64.0254 3.44954 64.0732 3.44954C64.1868 3.45087 64.3003 3.45153 64.4139 3.45286C64.4139 3.49669 64.4139 3.54052 64.4139 3.58567C64.5002 3.57239 64.5865 3.55845 64.6755 3.5445C65.574 3.45419 66.5648 3.67731 67.436 3.88052C67.7282 3.94692 68.0224 4.00536 68.3166 4.06513C68.5105 4.11228 68.6785 4.1747 68.8631 4.24974C69.0962 4.32212 69.3313 4.3872 69.5664 4.45294C69.8758 4.54192 70.1633 4.64884 70.4569 4.78099C70.5067 4.8029 70.5565 4.82481 70.6076 4.84739C70.9376 4.99415 71.2677 5.1429 71.5964 5.29298C71.7245 5.35142 71.8521 5.40919 71.9802 5.46696C72.2399 5.5845 72.4982 5.70204 72.7519 5.83153C72.9039 5.91985 72.9039 5.91985 73.0467 5.90989C73.0905 5.97563 73.1344 6.04138 73.1795 6.10911C73.4159 6.19013 73.4159 6.19013 73.6444 6.24192C73.6444 6.28575 73.6444 6.32958 73.6444 6.37474C73.6935 6.39399 73.7433 6.41325 73.7938 6.43317C73.9478 6.49626 74.0946 6.56399 74.242 6.64036C74.242 6.68419 74.242 6.72802 74.242 6.77317C74.2905 6.7911 74.3396 6.80903 74.3894 6.82763C74.5674 6.90333 74.7135 6.98899 74.8729 7.09724C74.9247 7.13243 74.9765 7.16763 75.0303 7.20349C75.1398 7.28185 75.2461 7.36485 75.3503 7.44985C75.5037 7.57868 75.5037 7.57868 75.703 7.66567C75.9261 7.78188 76.0602 7.92267 76.2342 8.1013C76.296 8.13849 76.3577 8.17567 76.4208 8.21353C76.4693 8.24208 76.5171 8.2713 76.5662 8.30052C76.5662 8.34435 76.5662 8.38817 76.5662 8.43333C76.6054 8.4506 76.6446 8.46786 76.6844 8.48513C76.8883 8.59735 77.0211 8.75274 77.1785 8.92142C77.2894 9.03563 77.2894 9.03563 77.4215 9.09009C77.5803 9.1731 77.6845 9.26872 77.8113 9.39556C77.8804 9.46395 77.8804 9.46395 77.9508 9.53368C77.9979 9.58149 78.0451 9.62931 78.0936 9.67845C78.1407 9.7256 78.1885 9.77208 78.237 9.82056C78.49 10.0742 78.6952 10.3233 78.8904 10.6247C79.0014 10.7409 79.1149 10.8545 79.2311 10.9654C79.427 11.152 79.5844 11.3027 79.6873 11.5544C79.7697 11.7643 79.7697 11.7643 79.953 11.8825C80.1369 11.9801 80.1435 12.0943 80.2186 12.2849C80.3049 12.3712 80.3049 12.3712 80.3932 12.4595C80.5506 12.6169 80.5506 12.6169 80.5506 12.8161C80.5944 12.8381 80.6383 12.86 80.6834 12.8825C80.7053 12.9483 80.7272 13.014 80.7498 13.0818C80.791 13.1203 80.8322 13.1588 80.8747 13.198C81.0493 13.3839 81.1157 13.5792 81.2147 13.8122C81.2804 13.8561 81.3462 13.8999 81.4139 13.945C81.4597 14.0553 81.5042 14.1662 81.5467 14.2771C81.6144 14.378 81.6144 14.378 81.6835 14.4809C81.8004 14.6576 81.8309 14.7446 81.8787 14.9411C81.9418 15.062 82.0102 15.1789 82.0799 15.2958C82.1517 15.4186 82.2154 15.5434 82.2772 15.6716C82.3117 15.7374 82.3456 15.8031 82.3808 15.8708C82.4578 16.0315 82.5182 16.161 82.5428 16.3357C82.5209 16.3795 82.499 16.4233 82.4764 16.4685C82.5176 16.4831 82.5581 16.4977 82.5999 16.513C82.7925 16.6332 82.8197 16.7461 82.8914 16.9586C82.9253 17.0535 82.9253 17.0535 82.9592 17.1511C83.0076 17.3318 83.0076 17.3318 83.0076 17.5974C83.0515 17.5974 83.0953 17.5974 83.1405 17.5974C83.1405 17.707 83.1405 17.8165 83.1405 17.9294C83.1843 17.9294 83.2281 17.9294 83.2733 17.9294C83.6073 18.9083 83.6073 18.9083 83.6803 19.2164C83.7255 19.4043 83.7786 19.5776 83.8417 19.7602C83.9287 20.0119 83.9679 20.2556 84.0037 20.5193C84.0476 20.6083 84.0921 20.6966 84.1366 20.7849C84.2382 21.1322 84.2866 21.4848 84.3132 21.8447C84.3298 21.9835 84.3298 21.9835 84.4022 22.109C84.4819 22.2731 84.4931 22.4059 84.5058 22.5865C84.5204 22.8236 84.5204 22.8236 84.6014 23.0427C84.62 23.2366 84.6313 23.4305 84.6426 23.6251C84.6625 23.8442 84.6625 23.8442 84.7349 24.0674C84.8046 24.3177 84.8232 24.5395 84.8338 24.7985C84.8451 25.0608 84.8637 25.2879 84.9341 25.5422C85.0144 25.855 85.0184 26.1545 85.0171 26.4759C85.0171 26.5383 85.0178 26.6008 85.0178 26.6645C85.0184 26.8684 85.0178 27.0729 85.0178 27.2768C85.0178 27.4189 85.0178 27.5616 85.0178 27.7044C85.0184 28.0026 85.0178 28.3008 85.0171 28.5989C85.0164 28.9801 85.0171 29.3619 85.0178 29.7431C85.0184 30.0373 85.0184 30.3315 85.0178 30.6256C85.0178 30.7664 85.0178 30.9072 85.0178 31.0473C85.0184 31.2445 85.0178 31.4411 85.0171 31.6377C85.0178 31.6954 85.0178 31.7532 85.0178 31.813C85.0158 32.1477 84.9713 32.4199 84.867 32.738C84.8458 32.8961 84.8458 32.8961 84.8444 33.0435C84.8424 33.0966 84.8405 33.1497 84.8385 33.2049C84.8371 33.2593 84.8351 33.3131 84.8338 33.3689C84.8232 33.76 84.7807 34.0874 84.6678 34.4646C84.6512 34.6266 84.6386 34.788 84.6306 34.9507C84.608 35.381 84.608 35.381 84.535 35.5271C84.5164 35.7402 84.5058 35.9541 84.4938 36.1672C84.4686 36.3924 84.4088 36.5763 84.3358 36.7888C84.3198 36.9063 84.3072 37.0239 84.2986 37.1421C84.276 37.4462 84.276 37.4462 84.2029 37.5193C84.1844 37.6992 84.1731 37.8792 84.1618 38.0598C84.1359 38.2544 84.0788 38.4018 84.0037 38.5818C83.9772 38.7259 83.9772 38.7259 83.9665 38.864C83.9373 39.113 83.9373 39.113 83.8709 39.1794C83.849 39.2996 83.8304 39.4198 83.8131 39.5407C83.762 39.8641 83.6863 40.1636 83.5867 40.4743C83.5356 40.6523 83.503 40.8276 83.4725 41.0102C83.4247 41.2945 83.3523 41.5548 83.2553 41.8264C83.2055 41.9725 83.1677 42.1179 83.1325 42.2673C83.0741 42.4997 83.0741 42.4997 83.0076 42.5661C82.9864 42.6545 82.9671 42.7428 82.9499 42.8318C82.9027 43.0529 82.8456 43.2621 82.7712 43.4752C82.6922 43.7024 82.6397 43.9208 82.6092 44.1599C82.5654 44.1599 82.5215 44.1599 82.4764 44.1599C82.4731 44.225 82.4731 44.225 82.4691 44.2914C82.4419 44.6533 82.3828 44.899 82.2108 45.2224C82.1576 45.4203 82.1158 45.6195 82.0779 45.82C82.0341 45.82 81.9903 45.82 81.9451 45.82C81.9332 45.8878 81.9332 45.8878 81.9206 45.9575C81.8309 46.3779 81.6921 46.7723 81.544 47.1747C81.4743 47.364 81.4099 47.5546 81.3475 47.7458C81.3037 47.7458 81.2598 47.7458 81.2147 47.7458C81.2067 47.795 81.1987 47.8441 81.1908 47.8939C81.1795 47.959 81.1682 48.0241 81.1569 48.0905C81.1456 48.1542 81.135 48.2186 81.1244 48.2844C81.0832 48.4703 81.0254 48.6343 80.949 48.8083C80.9052 48.8083 80.8614 48.8083 80.8162 48.8083C80.8096 48.8907 80.8029 48.973 80.7956 49.0574C80.7664 49.2984 80.7067 49.4173 80.5506 49.6052C80.5035 49.7812 80.5035 49.7812 80.4842 49.9372C80.4404 49.9372 80.3966 49.9372 80.3514 49.9372C80.3394 50.0056 80.3268 50.0747 80.3142 50.1451C80.2053 50.5913 79.9662 50.9938 79.7537 51.3982C79.9769 51.4725 80.1442 51.4725 80.3793 51.4712C80.4623 51.4712 80.546 51.4706 80.6316 51.4706C80.7186 51.4699 80.8056 51.4692 80.8953 51.4692C80.9842 51.4686 81.0726 51.4686 81.1615 51.4679C81.378 51.4672 81.5952 51.4659 81.8123 51.4646C81.8123 51.5084 81.8123 51.5522 81.8123 51.5974C82.0315 51.5974 82.2506 51.5974 82.4764 51.5974C82.4764 51.6412 82.4764 51.685 82.4764 51.7302C82.5202 51.7362 82.564 51.7415 82.6092 51.7468C82.8742 51.8132 83.0999 51.9347 83.3397 52.0622C83.3397 52.1061 83.3397 52.1499 83.3397 52.195C83.3882 52.2004 83.4366 52.2057 83.4864 52.211C83.7182 52.2741 83.8165 52.373 83.9831 52.5437C84.0343 52.5948 84.0847 52.6459 84.1372 52.6984C84.27 52.8598 84.3324 52.9966 84.4022 53.1911C84.434 53.223 84.4653 53.2542 84.4978 53.2868C84.7594 53.5484 84.8385 53.907 84.9334 54.2536C84.9553 54.2756 84.9772 54.2975 84.9998 54.32C85.0058 54.4436 85.0071 54.5664 85.0065 54.6899C85.0065 54.8022 85.0065 54.8022 85.0058 54.9164C85.0051 54.9947 85.0045 55.0738 85.0038 55.1548C85.0038 55.2331 85.0038 55.3122 85.0032 55.3938C85.0025 55.5891 85.0012 55.785 84.9998 55.9802C84.956 55.9802 84.9122 55.9802 84.867 55.9802C84.8464 56.1057 84.8464 56.1057 84.8258 56.2339C84.6631 56.9438 84.2435 57.5275 83.6717 57.9724C83.5389 58.0169 83.4061 58.0614 83.2733 58.1052C83.2514 58.1709 83.2294 58.2367 83.2069 58.3044C83.0315 58.3263 82.8562 58.3482 82.6756 58.3708C82.6756 58.4147 82.6756 58.4585 82.6756 58.5036C82.4764 58.57 82.4764 58.57 82.2732 58.5661C82.07 58.5481 82.07 58.5481 81.9451 58.7029C81.7599 58.7161 81.5806 58.7208 81.3953 58.7195C81.3382 58.7195 81.2811 58.7195 81.2226 58.7195C81.0334 58.7201 80.8448 58.7195 80.6555 58.7181C80.5247 58.7181 80.3932 58.7181 80.2624 58.7181C79.9868 58.7181 79.7112 58.7175 79.4356 58.7168C79.083 58.7155 78.7304 58.7155 78.3785 58.7155C78.1069 58.7155 77.8359 58.7148 77.5643 58.7148C77.4348 58.7141 77.3047 58.7141 77.1745 58.7141C76.9926 58.7141 76.8106 58.7135 76.6286 58.7128C76.5749 58.7128 76.5217 58.7128 76.4666 58.7128C76.1612 58.7108 75.8716 58.6869 75.5701 58.6365C75.5436 58.6902 75.5436 58.6902 75.5163 58.7447C75.3776 59.0229 75.3776 59.0229 75.2381 59.3005C75.1943 59.3005 75.1505 59.3005 75.1053 59.3005C75.0834 59.3663 75.0615 59.432 75.0389 59.4997C74.9732 59.4997 74.9074 59.4997 74.8397 59.4997C74.837 59.5562 74.8344 59.612 74.8317 59.6704C74.764 59.9347 74.6644 60.0476 74.4824 60.2428C74.3742 60.3643 74.2865 60.4892 74.1962 60.6247C74.1457 60.6917 74.0953 60.7588 74.0428 60.8279C73.9771 60.8279 73.9113 60.8279 73.8436 60.8279C73.8389 60.8876 73.8336 60.9474 73.8283 61.0092C73.7679 61.2675 73.6869 61.3465 73.491 61.5211C73.2326 61.7642 73.0766 61.9767 72.9139 62.2888C72.8103 62.4176 72.8103 62.4176 72.7147 62.488C72.6489 62.488 72.5832 62.488 72.5155 62.488C72.4935 62.6195 72.4716 62.751 72.449 62.8865C72.3833 62.9084 72.3176 62.9303 72.2498 62.9529C72.2053 63.0412 72.1608 63.1302 72.117 63.2185C72.0234 63.3168 71.9258 63.4124 71.8268 63.5054C71.5765 63.7484 71.4071 63.9682 71.2537 64.281C71.2099 64.281 71.1661 64.281 71.1209 64.281C71.099 64.3467 71.0771 64.4125 71.0545 64.4802C71.0107 64.4802 70.9669 64.4802 70.9217 64.4802C70.9217 64.524 70.9217 64.5679 70.9217 64.613C70.8779 64.613 70.834 64.613 70.7889 64.613C70.767 64.6681 70.767 64.6681 70.7437 64.7239C70.6302 64.9258 70.4774 65.0765 70.3141 65.2379C70.2796 65.2731 70.2444 65.3083 70.2085 65.3442C70.0943 65.4597 69.9787 65.5746 69.8632 65.6895C69.7835 65.7691 69.7038 65.8495 69.6241 65.9292C69.4568 66.0965 69.2888 66.2639 69.1214 66.4312C68.9063 66.6457 68.6918 66.8609 68.4773 67.076C68.3119 67.2414 68.1472 67.4061 67.9819 67.5708C67.9029 67.6498 67.8232 67.7295 67.7442 67.8092C67.6339 67.9194 67.523 68.0296 67.4121 68.1399C67.3796 68.1731 67.3471 68.2063 67.3132 68.2401C67.0854 68.4646 67.0854 68.4646 66.9373 68.4646C66.9373 68.5084 66.9373 68.5522 66.9373 68.5974C66.8497 68.5755 66.762 68.5536 66.6717 68.531C66.6717 68.5967 66.6717 68.6625 66.6717 68.7302C66.5767 68.8305 66.5767 68.8305 66.4433 68.9381C66.1703 69.1645 65.9286 69.4115 65.6876 69.6718C65.5249 69.808 65.4173 69.8279 65.2108 69.8591C65.1404 69.9786 65.1404 69.9786 65.078 70.1247C64.9119 70.3074 64.9119 70.3074 64.7459 70.4568C64.7021 70.4568 64.6583 70.4568 64.6131 70.4568C64.6131 70.5006 64.6131 70.5444 64.6131 70.5896C64.4371 70.6865 64.3548 70.7224 64.1483 70.7224C64.1317 70.7622 64.1157 70.8021 64.0985 70.8432C64.0035 71.0093 63.9112 71.0863 63.7498 71.1872C63.706 71.1872 63.6622 71.1872 63.617 71.1872C63.617 71.2311 63.617 71.2749 63.617 71.32C63.3587 71.5923 63.1044 71.7856 62.7537 71.9177C62.698 71.9768 62.6415 72.0359 62.5837 72.0963C62.5306 72.1468 62.4768 72.1979 62.4217 72.2497C62.2683 72.2378 62.2683 72.2378 62.1561 72.1833C62.1521 72.2205 62.1481 72.2577 62.1435 72.2956C62.0658 72.518 61.935 72.6283 61.7576 72.781C61.6481 72.8281 61.5378 72.8726 61.4256 72.9138C61.3765 72.9656 61.3765 72.9656 61.326 73.0181C61.2264 73.113 61.2264 73.113 61.0564 73.1422C61.0033 73.1549 60.9495 73.1668 60.8944 73.1794C60.8492 73.2677 60.8047 73.3561 60.7616 73.445C60.652 73.4929 60.5411 73.5367 60.4295 73.5779C60.3724 73.6243 60.3146 73.6715 60.2555 73.7193C60.0975 73.8435 60.0975 73.8435 59.8983 73.8435C59.8837 73.8847 59.8684 73.9258 59.8525 73.9683C59.7382 74.1529 59.6346 74.1675 59.4334 74.2419C59.3212 74.3282 59.2103 74.4172 59.1014 74.5075C58.867 74.6842 58.6379 74.8482 58.3709 74.9724C58.3138 75.0082 58.256 75.0441 58.1969 75.0806C58.0389 75.1716 58.0389 75.1716 57.9061 75.1716C57.9061 75.2154 57.9061 75.2593 57.9061 75.3044C57.7733 75.238 57.7733 75.238 57.7069 75.1716C57.7069 75.2374 57.7069 75.3031 57.7069 75.3708C57.5535 75.487 57.5535 75.487 57.3748 75.57C57.3091 75.5481 57.2433 75.5262 57.1756 75.5036C57.1537 75.5913 57.1318 75.679 57.1092 75.7693C56.9996 75.7912 56.8901 75.8131 56.7772 75.8357C56.7553 75.9014 56.7333 75.9672 56.7108 76.0349C56.564 76.1272 56.564 76.1272 56.3827 76.2135C56.2937 76.2574 56.2937 76.2574 56.2028 76.3018C56.0467 76.3669 56.0467 76.3669 55.9139 76.3669C55.9139 76.4108 55.9139 76.4546 55.9139 76.4997C55.8648 76.5177 55.8156 76.5356 55.7645 76.5542C55.5845 76.6226 55.5845 76.6226 55.4597 76.7275C55.3016 76.8424 55.1476 76.9134 54.9676 76.9898C54.6821 77.1153 54.4264 77.2561 54.1714 77.4354C54.0545 77.4958 54.0545 77.4958 53.7889 77.4958C53.7889 77.5397 53.7889 77.5835 53.7889 77.6286C53.7404 77.6479 53.6926 77.6665 53.6428 77.6858C53.4721 77.7555 53.3101 77.8318 53.1454 77.9155C53.0591 77.9594 53.0591 77.9594 52.9701 78.0038C52.9117 78.0337 52.8532 78.0629 52.7928 78.0935C52.6301 78.1752 52.4674 78.2562 52.3047 78.3372C52.1772 78.4016 52.0504 78.468 51.9242 78.5351C51.8545 78.5716 51.7854 78.6081 51.7137 78.646C51.6187 78.6965 51.6187 78.6965 51.5218 78.7489C51.3119 78.8319 51.1572 78.8386 50.9334 78.824C50.9334 78.8678 50.9334 78.9116 50.9334 78.9568C50.8272 79.0033 50.7209 79.0491 50.614 79.0942C50.5549 79.1195 50.4951 79.1447 50.434 79.1713C50.2694 79.2224 50.2694 79.2224 50.0701 79.156C50.0701 79.2217 50.0701 79.2875 50.0701 79.3552C49.6219 79.488 49.6219 79.488 49.4725 79.488C49.4725 79.5318 49.4725 79.5757 49.4725 79.6208C49.4054 79.6388 49.3383 79.6567 49.2693 79.6753C49.0169 79.747 48.7832 79.8486 48.5428 79.9529C48.41 79.9974 48.2772 80.0418 48.1444 80.0857C48.0321 80.1348 47.9199 80.1833 47.807 80.2324C47.6158 80.3114 47.4205 80.3745 47.2233 80.4383C47.1064 80.4761 46.9902 80.5173 46.8747 80.5592C46.6834 80.6169 46.6834 80.6169 46.443 80.6501C46.2412 80.68 46.1276 80.7198 45.953 80.8161C45.8646 80.8387 45.7763 80.8606 45.6873 80.8825C45.6448 80.9058 45.6023 80.929 45.5585 80.9536C45.3932 81.0286 45.271 81.0154 45.0897 81.0154C44.9788 81.0592 44.8685 81.1037 44.7576 81.1482C44.6388 81.1648 44.6388 81.1648 44.5173 81.1814C44.2848 81.2 44.2848 81.2 44.0936 81.3474C43.9335 81.358 43.9335 81.358 43.7576 81.352C43.5178 81.3381 43.5178 81.3381 43.2967 81.4138C43.0776 81.4397 42.8571 81.4483 42.6366 81.4596C42.5762 81.4636 42.5151 81.4676 42.452 81.4716C42.3929 81.4749 42.3345 81.4782 42.2741 81.4815C42.2203 81.4842 42.1665 81.4875 42.1114 81.4902C41.9686 81.4802 41.9686 81.4802 41.7694 81.3474C41.5469 81.3228 41.3251 81.3142 41.1013 81.3042C40.9061 81.281 40.9061 81.281 40.7733 81.1482C40.6232 81.1389 40.4778 81.1488 40.3277 81.1568C40.1557 81.1475 40.0607 81.0957 39.91 81.0154C39.7931 80.9994 39.7931 80.9994 39.6736 80.9822C39.4451 80.949 39.4451 80.949 39.2459 80.8161C39.1138 80.7922 38.981 80.7703 38.8475 80.7497C38.6914 80.7092 38.5374 80.6634 38.3826 80.6169C38.3826 80.5731 38.3826 80.5293 38.3826 80.4841C38.2717 80.4888 38.2717 80.4888 38.1589 80.4927C37.9178 80.4841 37.9178 80.4841 37.785 80.3513C37.6528 80.3254 37.52 80.3028 37.3866 80.2849C37.3866 80.2411 37.3866 80.1972 37.3866 80.1521C37.2942 80.1567 37.2942 80.1567 37.2 80.1607C36.9881 80.1521 36.9881 80.1521 36.7889 80.0193C36.6873 79.9861 36.585 79.9562 36.4821 79.9283C36.1946 79.8453 35.9289 79.741 35.658 79.6149C35.5544 79.567 35.4475 79.5245 35.3406 79.484C35.1951 79.4216 35.1951 79.4216 35.071 79.318C34.9275 79.2058 34.9275 79.2058 34.7137 79.1938C34.4527 79.1547 34.2814 79.077 34.053 78.9528C33.9241 78.8817 33.9241 78.8817 33.7342 78.824C33.7342 78.7801 33.7342 78.7363 33.7342 78.6911C33.6585 78.6752 33.5835 78.6586 33.5051 78.6413C33.1897 78.5623 32.9094 78.4355 32.6179 78.2927C32.5369 78.2542 32.5369 78.2542 32.4539 78.2143C31.6497 77.8239 30.8621 77.4015 30.0819 76.9646C30.0819 76.9207 30.0819 76.8769 30.0819 76.8318C29.9723 76.8318 29.8627 76.8318 29.7498 76.8318C29.7498 76.7879 29.7498 76.7441 29.7498 76.699C29.7093 76.6863 29.6682 76.6737 29.6263 76.6604C29.5725 76.6432 29.5187 76.6259 29.4636 76.608C29.4105 76.5907 29.3574 76.5741 29.3023 76.5568C29.1522 76.4997 29.1522 76.4997 28.953 76.3669C28.953 76.3012 28.953 76.2354 28.953 76.1677C28.9131 76.183 28.8739 76.1983 28.8328 76.2135C28.785 76.2202 28.7371 76.2275 28.6873 76.2341C28.5917 76.1511 28.5917 76.1511 28.4881 76.0349C28.3254 75.928 28.1707 75.8416 27.9901 75.7693C27.5192 75.5813 27.0996 75.246 26.6825 74.9604C26.4933 74.8383 26.3007 74.7373 26.0975 74.6404C26.0975 74.5965 26.0975 74.5527 26.0975 74.5075C26.0225 74.4903 25.9468 74.4724 25.8691 74.4538C25.7522 74.4146 25.7522 74.4146 25.6327 74.3747C25.6107 74.309 25.5888 74.2432 25.5662 74.1755C25.5171 74.1702 25.468 74.1649 25.4168 74.1589C25.1984 74.0998 25.1107 74.0175 24.9686 73.8435C24.9686 73.7997 24.9686 73.7558 24.9686 73.7107C24.9028 73.7326 24.8371 73.7545 24.7694 73.7771C24.6598 73.7034 24.6598 73.7034 24.5456 73.5945C24.3656 73.4258 24.185 73.3043 23.9725 73.1794C23.8629 73.1044 23.7534 73.0287 23.6444 72.9517C23.4585 72.8195 23.2719 72.6893 23.08 72.5652C22.9366 72.4675 22.8323 72.3713 22.7108 72.2497C22.6603 72.2198 22.6098 72.19 22.5574 72.1588C22.3787 72.0505 22.3787 72.0505 22.1755 71.8805C22.0208 71.7523 21.8973 71.6634 21.7147 71.5857C21.7147 71.5418 21.7147 71.498 21.7147 71.4529C21.6762 71.4356 21.6383 71.4177 21.5985 71.3991C21.3953 71.2922 21.2219 71.1972 21.117 70.988C21.0287 70.9435 20.9404 70.8997 20.8514 70.8552C20.7637 70.7835 20.6781 70.7085 20.5944 70.6314C20.4384 70.4913 20.2936 70.3731 20.1169 70.2576C19.9098 70.1168 19.753 69.9614 19.5837 69.7781C19.4549 69.6506 19.4549 69.6506 19.2723 69.5424C18.9675 69.3312 18.7284 69.0682 18.4747 68.7999C18.2436 68.5615 18.0424 68.3955 17.7303 68.2654C17.7303 68.2215 17.7303 68.1777 17.7303 68.1325C17.6646 68.1106 17.5988 68.0887 17.5311 68.0661C17.5311 68.0223 17.5311 67.9785 17.5311 67.9333C17.4873 67.9333 17.4434 67.9333 17.3983 67.9333C17.3983 67.8895 17.3983 67.8457 17.3983 67.8005C17.3325 67.7786 17.2668 67.7567 17.1991 67.7341C17.1991 67.6903 17.1991 67.6465 17.1991 67.6013C17.1639 67.5874 17.128 67.5734 17.0915 67.5595C16.8723 67.4333 16.707 67.2606 16.5297 67.0827C16.4918 67.0448 16.454 67.007 16.4148 66.9684C16.3351 66.8881 16.2554 66.8084 16.1757 66.7281C16.0535 66.6052 15.9307 66.483 15.8078 66.3608C15.7301 66.2838 15.6531 66.2061 15.5754 66.1284C15.5382 66.0912 15.5017 66.0547 15.4632 66.0168C15.2069 65.7572 15.2069 65.7572 15.2069 65.6091C15.163 65.6091 15.1192 65.6091 15.0741 65.6091C15.0741 65.5653 15.0741 65.5215 15.0741 65.4763C15.0083 65.4544 14.9426 65.4325 14.8748 65.4099C14.8748 65.3661 14.8748 65.3222 14.8748 65.2771C14.831 65.2771 14.7872 65.2771 14.742 65.2771C14.4671 65.0108 14.2413 64.7013 14.0242 64.3872C13.9033 64.2245 13.7599 64.0884 13.6131 63.949C13.5779 63.9124 13.5421 63.8752 13.5055 63.8374C13.4026 63.7338 13.4026 63.7338 13.2147 63.6169C13.1357 63.4429 13.1357 63.4429 13.0819 63.2849C13.038 63.2849 12.9942 63.2849 12.9491 63.2849C12.9491 63.2192 12.9491 63.1534 12.9491 63.0857C12.8833 63.0418 12.8176 62.998 12.7498 62.9529C12.5712 62.7868 12.5712 62.7868 12.4178 62.6208C12.4178 62.577 12.4178 62.5332 12.4178 62.488C12.3521 62.4661 12.2863 62.4442 12.2186 62.4216C12.2186 62.3778 12.2186 62.334 12.2186 62.2888C12.1528 62.2669 12.0871 62.245 12.0194 62.2224C11.9131 62.0902 11.9131 62.0902 11.8075 61.9282C11.773 61.8744 11.7378 61.8213 11.7013 61.7662C11.6209 61.6247 11.6209 61.6247 11.6209 61.4919C11.5552 61.47 11.4894 61.4481 11.4217 61.4255C11.2763 61.2283 11.1674 61.0609 11.0897 60.8279C11.0459 60.8279 11.002 60.8279 10.9569 60.8279C10.8241 60.6286 10.8241 60.6286 10.8241 60.4294C10.7583 60.4075 10.6926 60.3856 10.6248 60.363C10.504 60.2309 10.504 60.2309 10.3798 60.0688C10.3386 60.015 10.2975 59.9619 10.255 59.9068C10.16 59.7654 10.16 59.7654 10.16 59.6325C10.1162 59.6106 10.0723 59.5887 10.0272 59.5661C9.92492 59.4194 9.83195 59.2686 9.73765 59.1166C9.59089 58.9174 9.46007 58.7879 9.21171 58.7407C9.12804 58.7381 9.12804 58.7381 9.04238 58.7354C8.9773 58.7327 8.91289 58.7308 8.84582 58.7281C8.77476 58.7268 8.7037 58.7254 8.63066 58.7234C8.55496 58.7215 8.47992 58.7188 8.40222 58.7168C7.25871 58.6876 6.11386 58.7015 4.97035 58.7095C4.71734 58.7115 4.46433 58.7122 4.21132 58.7128C4.11636 58.7135 4.02074 58.7141 3.92578 58.7148C3.79429 58.7161 3.66214 58.7168 3.53066 58.7168C3.45628 58.7175 3.38191 58.7181 3.30488 58.7188C3.12093 58.7029 3.12093 58.7029 2.92172 58.57C2.77031 58.5402 2.77031 58.5402 2.61027 58.5289C2.55714 58.5236 2.50336 58.5189 2.44824 58.5136C2.40707 58.5103 2.36656 58.507 2.32406 58.5036C2.32406 58.4598 2.32406 58.416 2.32406 58.3708C2.27757 58.3642 2.23109 58.3575 2.18328 58.3502C1.8632 58.2739 1.64539 58.1829 1.46078 57.906C1.29144 57.8263 1.29144 57.8263 1.12875 57.7732C1.12875 57.7293 1.12875 57.6855 1.12875 57.6404C1.063 57.6184 0.997262 57.5965 0.929528 57.574C0.730309 57.2864 0.730309 57.2864 0.730309 57.1091C0.686481 57.1091 0.642653 57.1091 0.597497 57.1091C0.533083 56.9803 0.468669 56.8508 0.404254 56.7213C0.345153 56.6044 0.282731 56.4895 0.219645 56.3747C0.121364 56.1542 0.0948017 55.9536 0.066247 55.7146C0.0443329 55.6927 0.0224189 55.6707 -0.000159265 55.6482C-0.00679989 55.4709 -0.00945784 55.2949 -0.00812972 55.1169C-0.00879378 55.0671 -0.0087924 55.0173 -0.0087924 54.9662C-0.00812834 54.5943 -0.00812802 54.5943 0.066247 54.5193C0.0855048 54.3506 0.0961295 54.1813 0.107419 54.0113C0.132653 53.8552 0.132653 53.8552 0.265466 53.7224C0.307966 53.5849 0.307966 53.5849 0.331872 53.4568C0.3757 53.4568 0.419528 53.4568 0.464684 53.4568C0.471989 53.4063 0.47863 53.3558 0.48527 53.3034C0.536403 53.1055 0.587536 53.063 0.730309 52.9255C0.809333 52.7529 0.809333 52.7529 0.863122 52.5935C0.90695 52.5935 0.950778 52.5935 0.995934 52.5935C1.00988 52.5543 1.02316 52.5145 1.03777 52.4733C1.16261 52.2741 1.31734 52.2276 1.52718 52.1286C1.58097 52.0735 1.58097 52.0735 1.63542 52.0171C1.7264 51.9294 1.7264 51.9294 1.99203 51.9294C1.99203 51.8856 1.99203 51.8418 1.99203 51.7966C2.35328 51.6432 2.66273 51.5702 3.05453 51.5449C3.18734 51.5456 3.18734 51.5456 3.25375 51.4646C3.36797 51.4599 3.48285 51.4593 3.59707 51.4606C3.66746 51.4613 3.73785 51.4619 3.81023 51.4619C3.95831 51.4639 4.10707 51.4659 4.25515 51.4672C4.32554 51.4679 4.39593 51.4686 4.46898 51.4692C4.53339 51.4699 4.59847 51.4706 4.66488 51.4712C4.84351 51.4652 5.00554 51.4387 5.17953 51.3982C5.15296 51.2959 5.15296 51.2959 5.12574 51.191C5.11578 51.1525 5.10581 51.114 5.09519 51.0741C5.03011 50.8848 4.93847 50.7135 4.8475 50.5349C4.7791 50.3901 4.71136 50.2447 4.64429 50.0993C4.61042 50.0269 4.57722 49.9538 4.54203 49.8788C4.46234 49.7008 4.38796 49.5215 4.31625 49.3396C4.2691 49.2327 4.2691 49.2327 4.22062 49.1238C4.14625 48.9504 4.08316 48.7765 4.02605 48.5972C3.92179 48.2731 3.78765 47.9643 3.65152 47.6535C3.58578 47.4802 3.58578 47.4802 3.58578 47.281C3.54195 47.2591 3.49812 47.2372 3.45297 47.2146C3.40382 47.0771 3.40382 47.0771 3.35734 46.9038C3.30156 46.7046 3.24711 46.5372 3.15414 46.3513C3.04058 46.1242 2.9755 45.8991 2.90578 45.6554C2.85996 45.504 2.80882 45.3579 2.75171 45.2104C2.66074 44.974 2.59168 44.7356 2.52328 44.4919C2.47082 44.3372 2.41769 44.1825 2.36324 44.0284C2.32406 43.8943 2.32406 43.8943 2.32406 43.695C2.28023 43.6731 2.2364 43.6512 2.19125 43.6286C2.15406 43.5005 2.15406 43.5005 2.12484 43.3345C2.11422 43.2747 2.10293 43.2156 2.09164 43.1545C2.06972 43.0277 2.04781 42.9015 2.02523 42.7753C2.01461 42.7162 2.00332 42.6565 1.99203 42.5954C1.98273 42.5402 1.97277 42.4858 1.96281 42.4293C1.94488 42.3656 1.94488 42.3656 1.92562 42.3005C1.88179 42.2786 1.83797 42.2567 1.79281 42.2341C1.75894 42.094 1.72574 41.9532 1.69718 41.8118C1.66066 41.6404 1.61617 41.4738 1.56836 41.3058C1.45082 40.8794 1.35586 40.4498 1.26156 40.0181C1.22836 39.8667 1.19515 39.7153 1.16195 39.5639C1.13738 39.4517 1.13738 39.4517 1.11215 39.3375C1.063 39.117 1.01253 38.8965 0.960737 38.6761C0.736948 37.7092 0.534411 36.7377 0.42484 35.7502C0.400934 35.549 0.369723 35.3524 0.331872 35.1539C0.200388 34.4573 0.11738 33.7686 0.0888248 33.0614C0.0835124 32.7911 0.0835126 32.7911 -0.000159265 32.5388C-0.00679989 32.3369 -0.00945711 32.1364 -0.00945711 31.9338C-0.0101212 31.8714 -0.0101218 31.8083 -0.0101218 31.7439C-0.0107859 31.5354 -0.0107852 31.3269 -0.0114492 31.119C-0.0114492 30.9743 -0.0114499 30.8295 -0.0121139 30.6847C-0.0121139 30.3813 -0.0121139 30.0778 -0.0121139 29.7743C-0.0121139 29.3852 -0.013442 28.9967 -0.014106 28.6082C-0.0147701 28.3094 -0.0154334 28.0099 -0.0154334 27.7111C-0.0154334 27.5683 -0.0154341 27.4249 -0.0160981 27.2814C-0.0167622 27.0809 -0.0167622 26.8803 -0.0160981 26.6791C-0.0167622 26.5908 -0.0167615 26.5908 -0.0174255 26.5005C-0.0154334 26.1638 0.023747 25.8856 0.132653 25.5661C0.0888251 25.5442 0.044997 25.5223 -0.000159265 25.4997C0.0436689 25.4997 0.087497 25.4997 0.132653 25.4997C0.131989 25.4539 0.131323 25.4081 0.130659 25.3609C0.124018 24.6869 0.21566 24.0806 0.351793 23.4206C0.409566 23.1184 0.444098 22.8183 0.464684 22.5115C0.508512 22.5115 0.552341 22.5115 0.597497 22.5115C0.596169 22.4743 0.59484 22.4364 0.592848 22.3972C0.584879 22.0533 0.626052 21.7803 0.730309 21.449C0.75488 21.2949 0.778122 21.1395 0.796716 20.9841C0.840544 20.9841 0.884372 20.9841 0.929528 20.9841C0.926872 20.9144 0.924214 20.8447 0.921558 20.7729C0.929526 20.5286 0.969372 20.4064 1.06234 20.1872C1.08757 20.0332 1.11082 19.8778 1.12875 19.7224C1.15066 19.7224 1.17257 19.7224 1.19515 19.7224C1.21574 19.65 1.23632 19.5776 1.25757 19.5026C1.30074 19.3538 1.34523 19.2058 1.39437 19.0583C1.41496 18.9846 1.43554 18.9109 1.45679 18.8345C1.51523 18.636 1.58363 18.4527 1.66 18.2615C1.70582 18.1074 1.75031 17.952 1.79281 17.7966C1.83664 17.7966 1.88047 17.7966 1.92562 17.7966C1.92297 17.7335 1.92031 17.6711 1.91765 17.606C1.92562 17.3982 1.92562 17.3982 2.05843 17.2654C2.1016 17.0947 2.1016 17.0947 2.12484 16.9333C2.16867 16.9333 2.2125 16.9333 2.25765 16.9333C2.255 16.8815 2.25234 16.8297 2.24968 16.7759C2.25765 16.6013 2.25765 16.6013 2.39047 16.4685C2.42765 16.3702 2.46019 16.2706 2.49007 16.1697C2.54918 15.9731 2.57507 15.8861 2.7225 15.738C2.75902 15.651 2.79222 15.562 2.82211 15.4724C2.88386 15.2904 2.91574 15.2134 3.05453 15.074C3.11031 14.9385 3.15546 14.8004 3.20195 14.6609C3.25374 14.5427 3.25375 14.5427 3.38656 14.4763C3.44234 14.3382 3.44234 14.3382 3.48617 14.1775C3.53398 14.0134 3.53398 14.0134 3.58578 13.8786C3.62961 13.8567 3.67343 13.8348 3.71859 13.8122C3.7405 13.7465 3.76242 13.6808 3.785 13.613C3.82882 13.613 3.87265 13.613 3.91781 13.613C3.93972 13.5034 3.96164 13.3939 3.98422 13.281C4.02804 13.281 4.07187 13.281 4.11703 13.281C4.13628 13.2166 4.15554 13.1522 4.17546 13.0864C4.24984 12.8825 4.24984 12.8825 4.38265 12.8161C4.40457 12.7504 4.42648 12.6847 4.44906 12.6169C4.49289 12.5731 4.53671 12.5293 4.58187 12.4841C4.70671 12.3015 4.82824 12.1169 4.94644 11.929C4.98097 11.8752 5.0155 11.822 5.0507 11.7663C5.08324 11.7151 5.11578 11.664 5.14898 11.6115C5.24593 11.488 5.24593 11.488 5.44515 11.4216C5.47835 11.3233 5.47835 11.3233 5.51156 11.2224C5.48964 11.1786 5.46773 11.1347 5.44515 11.0896C5.48433 11.0736 5.52351 11.057 5.56335 11.0398C5.73269 10.9448 5.82167 10.8419 5.9432 10.6911C6.09593 10.5025 6.21613 10.3877 6.44125 10.2927C6.44125 10.1831 6.44125 10.0736 6.44125 9.96067C6.49902 9.93743 6.55613 9.91419 6.61589 9.89028C6.97648 9.6831 7.18964 9.40087 7.37093 9.03099C7.49113 8.88157 7.49113 8.88157 7.63656 8.76536C7.81917 8.74876 7.81917 8.74876 7.96859 8.76536C7.99316 8.70892 7.99316 8.70892 8.01839 8.65048C8.11468 8.47649 8.22624 8.35763 8.36703 8.21751C8.43675 8.14712 8.43675 8.14712 8.50847 8.0754C8.63265 7.96849 8.63265 7.96849 8.76546 7.96849C8.76546 7.92466 8.76546 7.88083 8.76546 7.83567C8.93015 7.80313 8.93015 7.80313 9.0975 7.76927C9.0975 7.72544 9.0975 7.68161 9.0975 7.63646C9.33191 7.41997 9.56831 7.25595 9.84722 7.10255C10.2291 6.88938 10.6461 6.61978 10.9569 6.30833C11.0678 6.30567 11.1787 6.30567 11.2889 6.30833C11.2889 6.2645 11.2889 6.22067 11.2889 6.17552C11.4536 6.14298 11.4536 6.14298 11.6209 6.10911C11.6209 6.06528 11.6209 6.02146 11.6209 5.9763C11.6634 5.96833 11.7059 5.96036 11.7498 5.95173C11.7949 5.93778 11.8401 5.9245 11.8866 5.90989C11.9085 5.86606 11.9304 5.82224 11.953 5.77708C12.0625 5.77708 12.1721 5.77708 12.285 5.77708C12.285 5.73325 12.285 5.68942 12.285 5.64427C12.4497 5.61173 12.4497 5.61173 12.617 5.57786C12.617 5.53403 12.617 5.49021 12.617 5.44505C12.7266 5.44505 12.8362 5.44505 12.9491 5.44505C12.9491 5.40122 12.9491 5.35739 12.9491 5.31224C12.9955 5.29431 13.042 5.27571 13.0898 5.25646C13.291 5.17544 13.4916 5.0931 13.6921 5.00942C13.7619 4.98087 13.8309 4.95165 13.9026 4.92177C14.0062 4.87794 14.1098 4.83146 14.2108 4.78099C14.3436 4.77833 14.4764 4.77833 14.6092 4.78099C14.6092 4.73716 14.6092 4.69333 14.6092 4.64817C14.7845 4.60435 14.9598 4.56052 15.1405 4.51536C15.1405 4.49345 15.1405 4.47153 15.1405 4.44896C15.2939 4.44896 15.4473 4.44896 15.6053 4.44896C15.6053 4.40513 15.6053 4.3613 15.6053 4.31614C15.934 4.2504 15.934 4.2504 16.2694 4.18333C16.2694 4.16142 16.2694 4.1395 16.2694 4.11692C16.3145 4.1136 16.359 4.11095 16.4055 4.10763C16.4945 4.09966 16.4945 4.09966 16.5848 4.09235C16.6432 4.08771 16.7023 4.08306 16.7621 4.07841C16.9354 4.05052 17.045 3.99606 17.1991 3.91771C17.3538 3.89247 17.3538 3.89247 17.5105 3.88052C17.7064 3.87853 17.7064 3.87853 17.8631 3.78489C17.9946 3.77294 18.1261 3.76364 18.2576 3.75634C18.5259 3.73774 18.7802 3.71317 19.0418 3.65208C19.5943 3.53056 20.1853 3.51595 20.7491 3.52192C20.9377 3.51927 20.9357 3.45618 21.1077 3.44556ZM81.8123 45.9529C81.8787 46.0857 81.8787 46.0857 81.8787 46.0857L81.8123 45.9529ZM0.863122 52.6599C0.885036 52.7037 0.90695 52.7475 0.929528 52.7927C0.951442 52.7489 0.973356 52.705 0.995934 52.6599C0.952106 52.6599 0.908278 52.6599 0.863122 52.6599ZM84.1366 57.1091C84.203 57.2419 84.2029 57.2419 84.2029 57.2419L84.1366 57.1091ZM82.2108 58.3708C82.2108 58.3927 82.2108 58.4147 82.2108 58.4372C82.3422 58.4372 82.4737 58.4372 82.6092 58.4372C82.6092 58.4153 82.6092 58.3934 82.6092 58.3708C82.4777 58.3708 82.3462 58.3708 82.2108 58.3708ZM75.5037 58.5036C75.5701 58.6365 75.5701 58.6365 75.5701 58.6365L75.5037 58.5036ZM76.035 58.57C76.035 58.592 76.035 58.6139 76.035 58.6365C76.1446 58.6365 76.2541 58.6365 76.367 58.6365C76.367 58.6145 76.367 58.5926 76.367 58.57C76.2574 58.57 76.1479 58.57 76.035 58.57ZM81.2147 58.57C81.2147 58.592 81.2147 58.6139 81.2147 58.6365C81.4557 58.6365 81.6968 58.6365 81.9451 58.6365C81.9451 58.6145 81.9451 58.5926 81.9451 58.57C81.7041 58.57 81.463 58.57 81.2147 58.57ZM74.6405 59.7654C74.7069 59.8982 74.7069 59.8982 74.7069 59.8982L74.6405 59.7654Z" fill="#425DA1" fill-opacity="0.8"/>
<path d="M69.3945 49.8047C69.7192 50.0882 69.8939 50.4136 70.0918 50.7928C70.1622 50.9243 70.2332 51.0564 70.3036 51.1886C70.3581 51.2902 70.3581 51.2902 70.4132 51.3938C70.5885 51.7179 70.7691 52.0373 70.9511 52.3573C70.9869 52.4204 71.0228 52.4842 71.06 52.5493C71.1689 52.7412 71.2778 52.9331 71.3867 53.125C71.5282 53.374 71.6689 53.623 71.8104 53.8721C71.8622 53.9644 71.8622 53.9644 71.916 54.0593C72.1158 54.412 72.3137 54.7666 72.5096 55.1212C72.5316 55.161 72.5535 55.2009 72.576 55.242C72.6823 55.4346 72.7892 55.6279 72.8948 55.8211C73.5031 56.9234 74.1326 57.9029 75.3591 58.3771C75.5039 58.4375 75.5039 58.4375 75.5783 58.5783C75.5663 58.8665 75.4216 59.0823 75.2383 59.3008C75.1944 59.3008 75.1506 59.3008 75.1055 59.3008C75.0835 59.3665 75.0616 59.4323 75.0391 59.5C74.9733 59.5 74.9076 59.5 74.8398 59.5C74.8372 59.5564 74.8345 59.6122 74.8319 59.67C74.7641 59.9343 74.6645 60.0472 74.4826 60.2431C74.3743 60.3639 74.2867 60.4895 74.1964 60.6249C74.1459 60.692 74.0954 60.7591 74.043 60.8281C73.9772 60.8281 73.9115 60.8281 73.8437 60.8281C73.8364 60.9178 73.8364 60.9178 73.8285 61.0087C73.7674 61.2677 73.687 61.3468 73.4911 61.5214C73.2328 61.7638 73.0768 61.977 72.9141 62.2891C72.8105 62.4179 72.8105 62.4179 72.7148 62.4883C72.6491 62.4883 72.5834 62.4883 72.5156 62.4883C72.4937 62.6198 72.4718 62.7512 72.4492 62.8867C72.3835 62.9086 72.3177 62.9305 72.25 62.9531C72.2048 63.0414 72.161 63.1298 72.1172 63.2187C72.0229 63.317 71.9259 63.412 71.8263 63.505C71.576 63.7487 71.4066 63.9685 71.2539 64.2812C71.2101 64.2812 71.1662 64.2812 71.1211 64.2812C71.0992 64.347 71.0773 64.4127 71.0547 64.4805C71.0109 64.4805 70.967 64.4805 70.9219 64.4805C70.9219 64.5243 70.9219 64.5681 70.9219 64.6133C70.878 64.6133 70.8342 64.6133 70.7891 64.6133C70.7744 64.6498 70.7592 64.6863 70.7439 64.7235C70.6297 64.9254 70.4776 65.0761 70.3143 65.2382C70.2791 65.2734 70.2445 65.3086 70.2087 65.3444C70.0938 65.46 69.9789 65.5742 69.8634 65.6891C69.7837 65.7694 69.704 65.8491 69.6236 65.9295C69.4563 66.0968 69.2889 66.2641 69.1216 66.4308C68.9064 66.6453 68.6913 66.8605 68.4768 67.0763C68.3121 67.241 68.1474 67.4063 67.9821 67.571C67.903 67.65 67.8234 67.7297 67.7443 67.8087C67.6341 67.9196 67.5232 68.0299 67.4123 68.1401C67.3632 68.1893 67.3632 68.1893 67.3127 68.2404C67.0856 68.4648 67.0856 68.4648 66.9375 68.4648C66.9375 68.5087 66.9375 68.5525 66.9375 68.5977C66.8498 68.5757 66.7622 68.5538 66.6719 68.5312C66.6719 68.597 66.6719 68.6627 66.6719 68.7305C66.5769 68.8307 66.5769 68.8307 66.4434 68.9377C66.1705 69.1648 65.9288 69.4118 65.6877 69.6721C65.5244 69.8082 65.4175 69.8275 65.2109 69.8594C65.1399 69.9789 65.1399 69.9789 65.0781 70.125C64.9121 70.3076 64.9121 70.3076 64.7461 70.457C64.7023 70.457 64.6584 70.457 64.6133 70.457C64.6133 70.5009 64.6133 70.5447 64.6133 70.5898C64.4373 70.6868 64.355 70.7227 64.1484 70.7227C64.1318 70.7625 64.1152 70.8023 64.0986 70.8428C64.0037 71.0095 63.9114 71.0866 63.75 71.1875C63.7062 71.1875 63.6623 71.1875 63.6172 71.1875C63.6172 71.2313 63.6172 71.2752 63.6172 71.3203C63.3589 71.5919 63.1039 71.7852 62.7539 71.918C62.6975 71.9771 62.6417 72.0355 62.5839 72.0966C62.5301 72.1471 62.477 72.1975 62.4219 72.25C62.2685 72.2374 62.2685 72.2374 62.1562 72.1836C62.1523 72.2208 62.1483 72.2573 62.1436 72.2958C62.0653 72.5183 61.9351 72.6285 61.7578 72.7812C61.6482 72.8284 61.5373 72.8729 61.4258 72.9141C61.3766 72.9652 61.3766 72.9652 61.3262 73.0177C61.2266 73.1133 61.2266 73.1133 61.0566 73.1425C61.0028 73.1545 60.9496 73.1671 60.8945 73.1797C60.8494 73.2673 60.8049 73.3563 60.7617 73.4453C60.6521 73.4925 60.5412 73.5363 60.4297 73.5781C60.3719 73.6246 60.3148 73.6711 60.2557 73.7189C60.0977 73.8437 60.0977 73.8437 59.8984 73.8437C59.8832 73.8849 59.8685 73.9261 59.8526 73.9686C59.7384 74.1532 59.6348 74.1671 59.4336 74.2422C59.3207 74.3278 59.2105 74.4168 59.1016 74.5078C58.8671 74.6845 58.638 74.8485 58.3711 74.9727C58.3133 75.0085 58.2562 75.0437 58.1971 75.0802C58.0391 75.1719 58.0391 75.1719 57.9062 75.1719C57.9062 75.2157 57.9062 75.2595 57.9062 75.3047C57.7734 75.2383 57.7734 75.2383 57.707 75.1719C57.707 75.2376 57.707 75.3034 57.707 75.3711C57.5536 75.4873 57.5536 75.4873 57.375 75.5703C57.3093 75.5484 57.2435 75.5265 57.1758 75.5039C57.1539 75.5916 57.1319 75.6792 57.1094 75.7695C56.9998 75.7914 56.8902 75.8134 56.7773 75.8359C56.7554 75.9017 56.7335 75.9674 56.7109 76.0352C56.5642 76.1275 56.5642 76.1275 56.3829 76.2138C56.3238 76.2423 56.264 76.2716 56.2029 76.3014C56.0469 76.3672 56.0469 76.3672 55.9141 76.3672C55.9141 76.411 55.9141 76.4548 55.9141 76.5C55.8649 76.5179 55.8151 76.5359 55.7646 76.5538C55.5847 76.6228 55.5847 76.6228 55.4598 76.7278C55.3018 76.8427 55.1471 76.913 54.9678 76.9901C54.6816 77.1156 54.4266 77.2557 54.1709 77.435C54.0547 77.4961 54.0547 77.4961 53.7891 77.4961C53.7891 77.5399 53.7891 77.5837 53.7891 77.6289C53.7167 77.6568 53.7167 77.6568 53.6423 77.686C53.4723 77.7557 53.3096 77.8321 53.1456 77.9151C53.0586 77.9589 53.0586 77.9589 52.9703 78.0041C52.9118 78.0333 52.8534 78.0632 52.793 78.0937C52.6303 78.1754 52.4676 78.2564 52.3049 78.3368C52.1767 78.4012 52.0499 78.4676 51.9237 78.5353C51.8546 78.5719 51.7856 78.6084 51.7139 78.6456C51.6508 78.6794 51.587 78.714 51.5219 78.7485C51.3121 78.8322 51.1574 78.8382 50.9336 78.8242C50.9336 78.868 50.9336 78.9119 50.9336 78.957C50.8273 79.0035 50.7211 79.0487 50.6142 79.0938C50.5544 79.1197 50.4953 79.145 50.4342 79.1709C50.2695 79.2227 50.2695 79.2227 50.0703 79.1562C50.0703 79.222 50.0703 79.2877 50.0703 79.3555C49.6221 79.4883 49.6221 79.4883 49.4727 79.4883C49.4727 79.5321 49.4727 79.5759 49.4727 79.6211C49.3717 79.6477 49.3717 79.6477 49.2694 79.6749C49.0171 79.7466 48.7834 79.8482 48.543 79.9531C48.4102 79.9976 48.2773 80.0414 48.1445 80.0859C48.0323 80.1344 47.9194 80.1835 47.8072 80.2327C47.6159 80.3111 47.42 80.3748 47.2235 80.4386C47.1066 80.4764 46.9904 80.5176 46.8748 80.5587C46.6836 80.6172 46.6836 80.6172 46.4432 80.6504C46.2407 80.6803 46.1278 80.7201 45.9531 80.8164C45.8648 80.8383 45.7758 80.8609 45.6875 80.8828C45.645 80.9061 45.6025 80.9293 45.5587 80.9532C45.3927 81.0289 45.2711 81.0156 45.0898 81.0156C44.9789 81.0595 44.868 81.1039 44.7578 81.1484C44.6781 81.1591 44.5991 81.1703 44.5174 81.1816C44.285 81.1996 44.285 81.1996 44.0937 81.3477C43.9337 81.3583 43.9337 81.3583 43.7577 81.3516C43.518 81.3384 43.518 81.3384 43.2969 81.4141C43.0777 81.44 42.8573 81.4479 42.6368 81.4599C42.5757 81.4639 42.5146 81.4678 42.4522 81.4718C42.3639 81.4765 42.3639 81.4765 42.2742 81.4811C42.2204 81.4844 42.1666 81.4871 42.1109 81.4904C41.9687 81.4805 41.9687 81.4805 41.7695 81.3477C41.5464 81.3224 41.3253 81.3138 41.1008 81.3038C40.9062 81.2812 40.9062 81.2812 40.7734 81.1484C40.6234 81.1391 40.4779 81.1484 40.3278 81.1564C40.1559 81.1471 40.0609 81.096 39.9102 81.0156C39.8318 81.005 39.7541 80.9937 39.6737 80.9824C39.4453 80.9492 39.4453 80.9492 39.2461 80.8164C39.1139 80.7925 38.9805 80.7706 38.8477 80.75C38.6916 80.7095 38.5375 80.6637 38.3828 80.6172C38.3828 80.5734 38.3828 80.5295 38.3828 80.4844C38.2719 80.4884 38.2719 80.4884 38.1584 80.4923C37.918 80.4844 37.918 80.4844 37.7852 80.3516C37.653 80.325 37.5202 80.3024 37.3867 80.2852C37.3867 80.2413 37.3867 80.1975 37.3867 80.1523C37.325 80.155 37.2632 80.1577 37.2001 80.1603C36.9883 80.1523 36.9883 80.1523 36.7891 80.0195C36.6875 79.9863 36.5852 79.9558 36.4823 79.9279C36.1947 79.8455 35.9291 79.7406 35.6582 79.6151C35.5539 79.5673 35.4477 79.5248 35.3407 79.4843C35.1953 79.4219 35.1953 79.4219 35.0705 79.3183C34.9277 79.2061 34.9277 79.2061 34.7139 79.1934C34.4529 79.1543 34.2816 79.0772 34.0531 78.953C33.9236 78.8813 33.9236 78.8813 33.7344 78.8242C33.7344 78.7804 33.7344 78.7366 33.7344 78.6914C33.6208 78.6668 33.6208 78.6668 33.5053 78.6416C33.1898 78.5626 32.9096 78.4351 32.6181 78.293C32.5636 78.2671 32.5098 78.2412 32.4541 78.2139C31.6499 77.8241 30.8623 77.4011 30.082 76.9648C30.082 76.921 30.082 76.8772 30.082 76.832C29.9725 76.832 29.8629 76.832 29.75 76.832C29.75 76.7882 29.75 76.7444 29.75 76.6992C29.7095 76.6866 29.6683 76.6733 29.6265 76.66C29.5455 76.6341 29.5455 76.6341 29.4638 76.6076C29.3841 76.5823 29.3841 76.5823 29.3024 76.5564C29.1523 76.5 29.1523 76.5 28.9531 76.3672C28.9531 76.3014 28.9531 76.2357 28.9531 76.168C28.9133 76.1832 28.8734 76.1978 28.8329 76.2138C28.7851 76.2204 28.7366 76.2271 28.6875 76.2344C28.5919 76.1514 28.5919 76.1514 28.4883 76.0352C28.3256 75.9282 28.1709 75.8419 27.9902 75.7695C27.5194 75.5809 27.0991 75.2462 26.6827 74.96C26.4934 74.8378 26.3009 74.7376 26.0977 74.6406C26.0977 74.5968 26.0977 74.553 26.0977 74.5078C26.0226 74.4899 25.9469 74.472 25.8692 74.454C25.7915 74.4281 25.7132 74.4016 25.6328 74.375C25.6109 74.3093 25.589 74.2435 25.5664 74.1758C25.5173 74.1705 25.4675 74.1652 25.417 74.1592C25.1985 74.0994 25.1109 74.0177 24.9687 73.8437C24.9687 73.7999 24.9687 73.7561 24.9687 73.7109C24.903 73.7328 24.8373 73.7548 24.7695 73.7773C24.66 73.7036 24.66 73.7036 24.5451 73.5947C24.3658 73.4261 24.1852 73.3039 23.9727 73.1797C23.8624 73.1046 23.7535 73.0283 23.6446 72.9512C23.4587 72.8198 23.2721 72.6896 23.0802 72.5654C22.9367 72.4671 22.8325 72.3715 22.7109 72.25C22.6352 72.2048 22.6352 72.2048 22.5575 72.1584C22.3789 72.0508 22.3789 72.0508 22.1757 71.8808C22.021 71.752 21.8975 71.663 21.7148 71.5859C21.7148 71.5421 21.7148 71.4983 21.7148 71.4531C21.6763 71.4352 21.6385 71.4173 21.5986 71.3993C21.3954 71.2918 21.2214 71.1975 21.1172 70.9883C21.0289 70.9438 20.9399 70.8993 20.8516 70.8555C20.7639 70.7831 20.6782 70.708 20.5939 70.631C20.4378 70.4909 20.2937 70.3734 20.1171 70.2578C19.9099 70.117 19.7532 69.961 19.5839 69.7784C19.4544 69.6509 19.4544 69.6509 19.2724 69.542C18.9676 69.3314 18.7286 69.0685 18.4749 68.7995C18.2438 68.5611 18.0426 68.3958 17.7305 68.2656C17.7305 68.2218 17.7305 68.178 17.7305 68.1328C17.6647 68.1109 17.599 68.089 17.5312 68.0664C17.5312 68.0226 17.5312 67.9787 17.5312 67.9336C17.4874 67.9336 17.4436 67.9336 17.3984 67.9336C17.3984 67.8898 17.3984 67.8459 17.3984 67.8008C17.3327 67.7789 17.267 67.757 17.1992 67.7344C17.1992 67.6905 17.1992 67.6467 17.1992 67.6016C17.164 67.5876 17.1282 67.5737 17.0916 67.5591C16.8725 67.4336 16.7065 67.2609 16.5298 67.0829C16.492 67.0451 16.4541 67.0072 16.415 66.968C16.3353 66.8884 16.2556 66.8087 16.1759 66.7283C16.0537 66.6055 15.9309 66.4833 15.808 66.3611C15.7303 66.2834 15.6526 66.2057 15.5756 66.128C15.5384 66.0915 15.5012 66.055 15.4634 66.0171C15.207 65.7575 15.207 65.7575 15.207 65.6094C15.1632 65.6094 15.1194 65.6094 15.0742 65.6094C15.0742 65.5655 15.0742 65.5217 15.0742 65.4766C15.0085 65.4546 14.9427 65.4327 14.875 65.4102C14.875 65.3663 14.875 65.3225 14.875 65.2773C14.8312 65.2773 14.7873 65.2773 14.7422 65.2773C14.4673 65.0104 14.2415 64.7009 14.0243 64.3875C13.9035 64.2248 13.76 64.0887 13.6133 63.9492C13.5774 63.912 13.5422 63.8755 13.5057 63.837C13.4028 63.7341 13.4028 63.7341 13.2148 63.6172C13.1358 63.4432 13.1358 63.4432 13.082 63.2852C13.0382 63.2852 12.9944 63.2852 12.9492 63.2852C12.9492 63.2194 12.9492 63.1537 12.9492 63.0859C12.8835 63.0421 12.8177 62.9983 12.75 62.9531C12.5714 62.7871 12.5714 62.7871 12.418 62.6211C12.418 62.5773 12.418 62.5334 12.418 62.4883C12.3522 62.4664 12.2865 62.4445 12.2187 62.4219C12.2187 62.378 12.2187 62.3342 12.2187 62.2891C12.153 62.2671 12.0873 62.2452 12.0195 62.2227C11.9126 62.0898 11.9126 62.0898 11.8077 61.9278C11.7725 61.8747 11.7373 61.8216 11.7014 61.7664C11.6211 61.625 11.6211 61.625 11.6211 61.4922C11.5554 61.4703 11.4896 61.4484 11.4219 61.4258C11.2764 61.2286 11.1675 61.0612 11.0898 60.8281C11.046 60.8281 11.0022 60.8281 10.957 60.8281C10.8242 60.6289 10.8242 60.6289 10.8242 60.4297C10.7585 60.4078 10.6927 60.3859 10.625 60.3633C10.5041 60.2305 10.5041 60.2305 10.38 60.0684C10.3388 60.0153 10.2976 59.9622 10.2551 59.9071C10.1602 59.7656 10.1602 59.7656 10.1602 59.6328C10.1163 59.6109 10.0725 59.589 10.0273 59.5664C9.95762 59.4734 9.89187 59.3771 9.82812 59.2802C9.77699 59.2025 9.77699 59.2025 9.72453 59.1228C9.55785 58.8539 9.55785 58.8539 9.49609 58.7031C9.5293 58.6374 9.5293 58.6374 9.5625 58.5703C9.67074 58.5703 9.67074 58.5703 9.78098 58.5703C12.9572 58.567 16.1334 58.5643 19.3103 58.5597C19.382 58.5597 19.382 58.5597 19.4557 58.5597C20.5016 58.5584 21.5468 58.5564 22.5921 58.555C23.1047 58.5544 23.6174 58.5537 24.13 58.553C24.1812 58.553 24.2323 58.553 24.2848 58.5524C25.9383 58.5504 27.5911 58.5484 29.244 58.5471C30.9433 58.5457 32.6427 58.5437 34.3413 58.5411C34.5817 58.5404 34.8214 58.5398 35.0618 58.5398C35.1329 58.5398 35.1329 58.5398 35.2046 58.5391C35.965 58.5378 36.7253 58.5378 37.485 58.5371C38.2493 58.5371 39.0137 58.5358 39.7787 58.5338C40.1924 58.5331 40.6068 58.5325 41.0205 58.5325C41.3996 58.5331 41.7788 58.5325 42.158 58.5311C42.2955 58.5305 42.4323 58.5305 42.5691 58.5311C43.7504 58.5338 44.7286 58.4196 45.6503 57.5995C46.0819 57.1406 46.3834 56.5728 46.7042 56.0349C46.8821 55.7381 47.0654 55.4446 47.248 55.1504C47.3198 55.0348 47.3908 54.92 47.4625 54.8044C47.5157 54.7181 47.5157 54.7181 47.5701 54.6304C47.683 54.4471 47.7966 54.2645 47.9094 54.0812C48.0894 53.7897 48.27 53.4982 48.4507 53.2073C48.5084 53.1144 48.5662 53.0214 48.6233 52.9278C48.6891 52.8222 48.7548 52.7159 48.8212 52.6104C48.8551 52.5559 48.8889 52.5014 48.9235 52.4457C49.0078 52.3281 49.0078 52.3281 49.1406 52.2617C49.1798 52.3288 49.1798 52.3288 49.2203 52.3965C49.7788 53.3435 50.3419 54.2871 50.9137 55.2261C51.2258 55.7381 51.5346 56.2507 51.8427 56.7647C52.1993 57.3611 52.5592 57.9554 52.9211 58.5484C53.3275 59.2145 53.7286 59.8838 54.1291 60.5539C54.2439 60.7458 54.3588 60.9377 54.4744 61.1296C54.5999 61.3381 54.7241 61.5466 54.8476 61.7558C54.9452 61.9212 55.0441 62.0865 55.1424 62.2512C55.1909 62.3336 55.2394 62.4152 55.2878 62.4976C55.9147 63.5647 56.6824 64.4254 57.9102 64.7627C58.8977 64.9539 59.9164 64.8092 60.763 64.2607C61.4836 63.752 61.8661 63.0414 62.2891 62.2891C62.3249 62.226 62.3601 62.1629 62.3966 62.0971C62.5939 61.7465 62.7904 61.3952 62.9863 61.0439C63.1915 60.6761 63.3994 60.3095 63.6092 59.9443C63.6564 59.8606 63.6564 59.8606 63.7048 59.7762C63.8084 59.5956 63.912 59.415 64.0156 59.2344C64.1903 58.9302 64.3643 58.6254 64.5389 58.3213C64.5721 58.2622 64.5721 58.2622 64.6066 58.2024C64.9666 57.5729 65.3218 56.9414 65.6758 56.3085C66.0111 55.7069 66.3525 55.1092 66.6951 54.5116C66.9076 54.141 67.1194 53.7698 67.3319 53.3986C67.3545 53.3594 67.3771 53.3202 67.4003 53.2791C67.7098 52.7379 68.0173 52.1953 68.3241 51.6514C68.6734 51.0312 69.0306 50.4163 69.3945 49.8047ZM74.6406 59.7656C74.707 59.8984 74.707 59.8984 74.707 59.8984L74.6406 59.7656Z" fill="#425DA1" fill-opacity="0.7"/>
<path d="M70.9219 39.2461C70.975 39.27 71.0275 39.2939 71.0819 39.3192C72.3609 39.9673 72.928 41.4196 73.5901 42.6142C73.786 42.9669 73.9825 43.3188 74.1798 43.6701C74.2183 43.7392 74.2568 43.8082 74.2966 43.8793C74.5523 44.3362 74.8099 44.7917 75.0683 45.2479C75.5504 46.0999 76.0252 46.9559 76.5 47.8125C76.7211 48.211 76.9423 48.6094 77.1641 49.0078C77.2192 49.1074 77.2192 49.1074 77.2763 49.2091C77.3991 49.4295 77.522 49.6507 77.6455 49.8711C77.7033 49.9747 77.7033 49.9747 77.7617 50.0803C77.9742 50.4595 78.1914 50.8333 78.4205 51.2019C78.4922 51.3321 78.4922 51.3321 78.4922 51.4649C78.5752 51.4649 78.6589 51.4649 78.7445 51.4649C79.7672 51.4649 80.7898 51.4649 81.8125 51.4649C81.8125 51.5087 81.8125 51.5525 81.8125 51.5977C82.0316 51.5977 82.2508 51.5977 82.4766 51.5977C82.4766 51.6415 82.4766 51.6853 82.4766 51.7305C82.5423 51.7385 82.5423 51.7385 82.6094 51.7471C82.8743 51.8135 83.1001 51.9344 83.3398 52.0625C83.3398 52.1064 83.3398 52.1502 83.3398 52.1953C83.3883 52.2007 83.4368 52.2053 83.4866 52.2106C83.7183 52.2744 83.816 52.3726 83.9833 52.544C84.0338 52.5951 84.0849 52.6462 84.1374 52.6987C84.2702 52.8601 84.3326 52.9962 84.4023 53.1914C84.4495 53.2386 84.4495 53.2386 84.498 53.2871C84.7596 53.5487 84.8386 53.9073 84.9336 54.2539C84.9555 54.2758 84.9774 54.2978 85 54.3203C85.006 54.4432 85.0073 54.5667 85.0066 54.6902C85.006 54.8018 85.006 54.8018 85.006 54.916C85.0053 54.995 85.0046 55.0734 85.004 55.1544C85.004 55.2334 85.0033 55.3124 85.0033 55.3935C85.0026 55.5894 85.0013 55.7846 85 55.9805C84.9562 55.9805 84.9123 55.9805 84.8672 55.9805C84.8532 56.0642 84.84 56.1478 84.826 56.2335C84.6633 56.9434 84.2436 57.5271 83.6719 57.9727C83.5391 58.0172 83.4062 58.0617 83.2734 58.1055C83.2515 58.1712 83.2296 58.237 83.207 58.3047C83.0317 58.3266 82.8564 58.3485 82.6758 58.3711C82.6758 58.4149 82.6758 58.4588 82.6758 58.5039C82.4766 58.5703 82.4766 58.5703 82.2734 58.5664C82.0695 58.5478 82.0695 58.5478 81.9453 58.7032C81.76 58.7158 81.5807 58.7204 81.3948 58.7191C81.3383 58.7191 81.2812 58.7198 81.2228 58.7198C81.0335 58.7198 80.8449 58.7191 80.6557 58.7184C80.5249 58.7184 80.3934 58.7184 80.2619 58.7184C79.987 58.7184 79.7114 58.7178 79.4358 58.7171C79.0832 58.7158 78.7306 58.7151 78.378 58.7158C78.107 58.7158 77.8354 58.7151 77.5645 58.7144C77.4343 58.7144 77.3048 58.7144 77.1747 58.7144C76.9927 58.7138 76.8108 58.7138 76.6282 58.7131C76.575 58.7131 76.5219 58.7131 76.4668 58.7131C75.6533 58.7085 75.6533 58.7085 75.4607 58.5424C75.4315 58.5079 75.4016 58.4734 75.3711 58.4375C75.2701 58.3844 75.1679 58.3346 75.0643 58.2881C74.2581 57.8957 73.6312 57.2754 73.2089 56.4912C73.1591 56.4015 73.1591 56.4015 73.1086 56.3105C73.0369 56.181 72.9652 56.0515 72.8941 55.9214C72.7766 55.7069 72.6577 55.4924 72.5389 55.2786C72.3702 54.9751 72.2009 54.671 72.0328 54.3668C71.7725 53.898 71.5089 53.4312 71.2439 52.9643C71.0547 52.631 70.8667 52.2963 70.6801 51.9609C70.0918 50.9031 70.0918 50.9031 69.4609 49.8711C69.3168 50.0557 69.196 50.2437 69.0817 50.4475C69.0472 50.5086 69.0133 50.5697 68.9775 50.6321C68.9416 50.6972 68.9051 50.763 68.8673 50.83C68.7896 50.9688 68.7112 51.1076 68.6335 51.2464C68.5937 51.3168 68.5545 51.3872 68.514 51.4589C68.344 51.7604 68.172 52.0612 68 52.3614C67.6846 52.9119 67.3725 53.4637 67.0603 54.0162C66.8233 54.4366 66.5842 54.8562 66.3438 55.2753C66.0543 55.7806 65.7687 56.2886 65.4845 56.798C65.1797 57.3458 64.8683 57.889 64.5508 58.4296C64.2201 58.992 63.8994 59.5591 63.584 60.1309C63.1557 60.9065 62.7147 61.6735 62.2645 62.4365C62.1875 62.5673 62.1117 62.6995 62.036 62.8316C61.9962 62.9014 61.9557 62.9711 61.9145 63.0435C61.8787 63.1065 61.8428 63.1696 61.8056 63.2354C61.3109 64.0256 60.5964 64.5655 59.6992 64.8125C58.7283 65.0117 57.7469 64.9015 56.8876 64.4001C56.1232 63.8862 55.6239 63.1889 55.171 62.4013C55.0959 62.2718 55.0202 62.1417 54.9445 62.0122C54.9067 61.9478 54.8688 61.8827 54.8303 61.8156C54.661 61.5267 54.489 61.2399 54.3163 60.953C54.2499 60.8428 54.1842 60.7332 54.1184 60.6236C54.0859 60.5698 54.0533 60.5154 54.0201 60.4596C53.9225 60.2976 53.8249 60.1349 53.7273 59.9722C53.3302 59.3088 52.9298 58.6467 52.5267 57.986C52.2969 57.6088 52.0685 57.2309 51.842 56.8517C51.5538 56.371 51.2623 55.8928 50.9714 55.4141C50.6567 54.8967 50.3439 54.3788 50.0331 53.8595C49.97 53.7552 49.9069 53.6503 49.8445 53.5454C49.7323 53.3588 49.6207 53.1722 49.5098 52.9849C49.4614 52.9039 49.4129 52.8235 49.3651 52.7432C49.3239 52.6748 49.2834 52.6071 49.2416 52.5367C49.2084 52.4895 49.1751 52.443 49.1406 52.3946C49.0968 52.3946 49.053 52.3946 49.0078 52.3946C48.9294 52.4948 48.9294 52.4948 48.8557 52.629C48.8099 52.7067 48.8099 52.7067 48.7634 52.7857C48.7302 52.8428 48.6977 52.8999 48.6632 52.959C48.5908 53.0819 48.5184 53.2047 48.446 53.3276C48.4075 53.3926 48.369 53.4577 48.3298 53.5241C48.0941 53.9179 47.8483 54.3057 47.604 54.6935C47.3782 55.0528 47.1551 55.4141 46.9359 55.778C46.8894 55.8557 46.8423 55.9333 46.7958 56.0104C46.7075 56.1571 46.6192 56.3046 46.5322 56.452C45.9943 57.3405 45.2744 58.1918 44.2339 58.4714C43.8686 58.5591 43.5286 58.5889 43.1541 58.5869C43.0957 58.5869 43.0372 58.5869 42.9768 58.5869C42.7816 58.5876 42.587 58.5869 42.3917 58.5863C42.2496 58.5863 42.1082 58.5863 41.9667 58.5869C41.5783 58.5869 41.1898 58.5863 40.8013 58.5856C40.3816 58.5849 39.9626 58.5856 39.5436 58.5856C38.8171 58.5856 38.0913 58.5849 37.3648 58.5843C36.6038 58.5836 35.8421 58.583 35.0804 58.583C35.0333 58.583 34.9861 58.583 34.937 58.583C34.6966 58.583 34.4562 58.583 34.2151 58.583C32.5118 58.5823 30.8085 58.5816 29.1052 58.5803C27.4503 58.579 25.7955 58.5783 24.1413 58.5776C24.0902 58.5776 24.0391 58.5776 23.9866 58.5776C23.4739 58.5776 22.9619 58.577 22.4493 58.577C21.406 58.577 20.3621 58.5763 19.3182 58.5757C19.2465 58.5757 19.2465 58.5757 19.1728 58.5757C15.9694 58.575 12.7659 58.5723 9.56249 58.5703C9.56249 58.658 9.56249 58.7457 9.56249 58.836C9.49675 58.8141 9.43101 58.7921 9.36327 58.7696C9.12089 58.7463 8.87784 58.741 8.6348 58.7317C8.55909 58.729 8.48339 58.7264 8.40503 58.7231C7.76554 58.7025 7.12671 58.6992 6.48722 58.7012C6.41351 58.7018 6.41351 58.7018 6.33847 58.7018C5.88292 58.7038 5.42671 58.7065 4.9705 58.7098C4.71749 58.7111 4.46448 58.7124 4.21147 58.7131C4.11651 58.7138 4.02089 58.7144 3.92593 58.7151C3.79378 58.7164 3.66229 58.7171 3.53081 58.7171C3.41925 58.7178 3.41925 58.7178 3.30503 58.7184C3.12108 58.7032 3.12108 58.7032 2.92186 58.5703C2.77046 58.5405 2.77046 58.5405 2.61042 58.5292C2.55663 58.5239 2.5035 58.5192 2.44772 58.5139C2.40722 58.5106 2.36604 58.5073 2.32421 58.5039C2.32421 58.4601 2.32421 58.4163 2.32421 58.3711C2.27772 58.3645 2.23124 58.3572 2.18343 58.3505C1.86335 58.2742 1.64554 58.1832 1.46093 57.9063C1.29159 57.8266 1.29159 57.8266 1.1289 57.7735C1.1289 57.7296 1.1289 57.6858 1.1289 57.6407C1.06315 57.6187 0.997412 57.5968 0.929677 57.5742C0.730459 57.2867 0.730459 57.2867 0.730459 57.1094C0.686631 57.1094 0.642802 57.1094 0.597646 57.1094C0.533232 56.9799 0.468152 56.8504 0.404402 56.7209C0.3453 56.604 0.282885 56.4892 0.219799 56.3749C0.121517 56.1538 0.0942869 55.9539 0.0663962 55.7149C0.0444822 55.693 0.0225681 55.671 -1.00136e-05 55.6485C-0.00665064 55.4705 -0.00930656 55.2952 -0.00797844 55.1172C-0.0086425 55.0674 -0.0086438 55.0176 -0.00930786 54.9665C-0.0086438 54.5946 -0.00864283 54.5946 0.0663962 54.5196C0.08499 54.3502 0.0962787 54.1809 0.107568 54.0116C0.132802 53.8555 0.132802 53.8555 0.265615 53.7227C0.308115 53.5852 0.308115 53.5852 0.332021 53.4571C0.375849 53.4571 0.419677 53.4571 0.464834 53.4571C0.474795 53.3814 0.474799 53.3814 0.485424 53.3037C0.535892 53.1058 0.587685 53.0626 0.730459 52.9258C0.809482 52.7532 0.809482 52.7532 0.863271 52.5938C0.907099 52.5938 0.950927 52.5938 0.996084 52.5938C1.01003 52.5539 1.02331 52.5141 1.03726 52.4736C1.16276 52.2744 1.31683 52.2279 1.52733 52.1289C1.56319 52.0917 1.59839 52.0552 1.63491 52.0167C1.72655 51.9297 1.72655 51.9297 1.99218 51.9297C1.99218 51.8859 1.99218 51.8421 1.99218 51.7969C2.35343 51.6435 2.66288 51.5705 3.05468 51.5452C3.18749 51.5452 3.18749 51.5452 3.2539 51.4649C3.36811 51.4596 3.483 51.4596 3.59722 51.4609C3.66761 51.4616 3.738 51.4616 3.81038 51.4622C3.95847 51.4642 4.10655 51.4655 4.2553 51.4675C4.32569 51.4682 4.39608 51.4682 4.46913 51.4689C4.53354 51.4695 4.59796 51.4708 4.66503 51.4715C4.84831 51.4702 4.84831 51.4702 5.02893 51.427C5.17968 51.3985 5.17968 51.3985 5.31249 51.4649C5.5044 51.4728 5.69499 51.4762 5.88757 51.4775C5.97788 51.4782 5.97788 51.4782 6.07085 51.4788C6.27604 51.4808 6.48124 51.4821 6.68577 51.4835C6.83386 51.4841 6.98128 51.4855 7.1287 51.4868C7.53643 51.4894 7.94417 51.4921 8.35124 51.4948C8.61222 51.4967 8.87253 51.4987 9.13284 51.5001C12.4777 51.524 15.8219 51.5379 19.1668 51.5492C19.6516 51.5505 20.1357 51.5519 20.6205 51.5539C20.6742 51.5539 20.7274 51.5539 20.7832 51.5545C22.5177 51.5605 24.2529 51.5711 25.9881 51.5851C27.7717 51.599 29.5554 51.6083 31.3391 51.611C31.5914 51.6116 31.8431 51.6116 32.0955 51.6123C32.1453 51.6123 32.1944 51.6123 32.2455 51.613C33.0437 51.6143 33.8413 51.6209 34.6388 51.6302C35.441 51.6389 36.2432 51.6422 37.046 51.6395C37.4803 51.6382 37.9146 51.6395 38.3496 51.6482C39.9746 51.779 39.9746 51.779 41.466 51.3135C41.8041 50.9615 41.98 50.5783 42.1135 50.1135C42.1872 49.8751 42.2994 49.7005 42.4416 49.4959C42.4787 49.4368 42.5153 49.3784 42.5531 49.318C42.589 49.2608 42.6248 49.2037 42.662 49.1446C42.7457 49.0112 42.8294 48.8777 42.913 48.7442C42.9967 48.6107 43.0804 48.4773 43.1641 48.3438C43.6774 47.525 44.1887 46.7055 44.6954 45.8828C44.7399 45.811 44.7837 45.7393 44.8295 45.6656C45.0467 45.3137 45.2612 44.9597 45.4703 44.6031C46.2108 43.348 46.9014 42.423 48.3437 41.9688C49.4069 41.7496 50.3638 41.9807 51.2656 42.5664C51.767 42.9489 52.0738 43.4955 52.3945 44.0274C52.4231 44.0745 52.451 44.121 52.4802 44.1695C52.6422 44.4364 52.8023 44.7047 52.9623 44.973C53.2286 45.4186 53.4982 45.8622 53.7685 46.3058C54.0978 46.8483 54.4266 47.3908 54.7519 47.9347C54.9937 48.3378 55.2387 48.7389 55.4824 49.1407C56.0721 50.1108 56.0721 50.1108 56.3457 50.5684C56.6777 51.1229 57.0131 51.6754 57.3491 52.2279C57.3982 52.3082 57.4467 52.3879 57.4958 52.4683C57.5198 52.5074 57.5437 52.5466 57.5682 52.5871C57.713 52.8255 57.8564 53.0646 57.9992 53.3043C58.0324 53.3601 58.0656 53.4152 58.0995 53.4723C58.1599 53.5719 58.219 53.6722 58.2781 53.7732C58.4162 54.0029 58.5378 54.1796 58.7695 54.3203C58.7848 54.2778 58.8001 54.2353 58.816 54.1908C58.9329 53.9166 59.077 53.6596 59.2217 53.3986C59.2543 53.3408 59.2862 53.2831 59.3194 53.2233C59.8685 52.2319 60.4297 51.2471 60.9928 50.2636C61.2 49.9023 61.4045 49.5404 61.6084 49.1785C61.9371 48.5955 62.2698 48.0157 62.6085 47.4393C62.9571 46.845 63.2944 46.2453 63.6251 45.6417C64.0223 44.9192 64.4253 44.2007 64.8364 43.4862C64.9612 43.269 65.0854 43.0512 65.2096 42.8327C65.436 42.4356 65.6632 42.0385 65.8909 41.6421C65.962 41.5172 66.033 41.393 66.1034 41.2689C66.7203 40.1811 67.4183 39.3942 68.6574 39.0389C69.4178 38.8543 70.2113 38.9207 70.9219 39.2461ZM0.863271 52.6602C0.885185 52.704 0.907099 52.7478 0.929677 52.793C0.951592 52.7492 0.973506 52.7053 0.996084 52.6602C0.952256 52.6602 0.908427 52.6602 0.863271 52.6602ZM84.1367 57.1094C84.2031 57.2422 84.2031 57.2422 84.2031 57.2422L84.1367 57.1094ZM82.2109 58.3711C82.2109 58.393 82.2109 58.4149 82.2109 58.4375C82.3424 58.4375 82.4739 58.4375 82.6094 58.4375C82.6094 58.4156 82.6094 58.3937 82.6094 58.3711C82.4779 58.3711 82.3464 58.3711 82.2109 58.3711ZM76.0351 58.5703C76.0351 58.5923 76.0351 58.6142 76.0351 58.6367C76.1447 58.6367 76.2543 58.6367 76.3672 58.6367C76.3672 58.6148 76.3672 58.5929 76.3672 58.5703C76.2576 58.5703 76.148 58.5703 76.0351 58.5703ZM81.2148 58.5703C81.2148 58.5923 81.2148 58.6142 81.2148 58.6367C81.4559 58.6367 81.6969 58.6367 81.9453 58.6367C81.9453 58.6148 81.9453 58.5929 81.9453 58.5703C81.7042 58.5703 81.4632 58.5703 81.2148 58.5703Z" fill="#A2CFFC"/>
<path d="M21.3831 16.1233C21.4335 16.1226 21.484 16.1226 21.5358 16.1219C21.6427 16.1213 21.749 16.1213 21.8559 16.1206C22.0159 16.1199 22.176 16.1179 22.336 16.116C23.4702 16.108 24.3488 16.3006 25.1802 17.1081C26.1331 18.0803 26.3821 19.3101 26.5116 20.6183C26.5236 20.7246 26.5349 20.8315 26.5462 20.9377C26.576 21.214 26.6039 21.4902 26.6325 21.7665C26.6557 21.9929 26.6796 22.2187 26.7042 22.4451C26.754 22.9126 26.8031 23.3801 26.851 23.8476C26.8596 23.9293 26.8682 24.0117 26.8769 24.0967C26.8948 24.3045 26.8948 24.3045 26.8948 24.5701C26.9306 24.5754 26.9665 24.5808 27.0037 24.5861C27.9852 24.7242 28.966 24.8643 29.9468 25.0064C30.1294 25.0323 30.3114 25.0582 30.494 25.0841C33.6423 25.5337 33.6423 25.5337 34.7307 26.8279C35.3178 27.6354 35.4287 28.4762 35.4194 29.4556C35.42 29.5367 35.4207 29.6177 35.422 29.7013C35.4187 30.7293 35.161 31.5767 34.4651 32.3397C33.5015 33.2528 32.3726 33.4686 31.0996 33.602C30.9947 33.6133 30.8898 33.6253 30.7849 33.6366C30.5106 33.6665 30.237 33.6957 29.9628 33.7249C29.6301 33.7601 29.2967 33.7966 28.964 33.8331C28.705 33.861 28.446 33.8889 28.1871 33.9168C28.1392 33.9215 28.0914 33.9268 28.0423 33.9321C27.9141 33.946 27.786 33.9593 27.6578 33.9733C27.4247 33.9998 27.193 34.0324 26.9612 34.0662C26.9121 34.4095 26.8636 34.7529 26.8158 35.0955C26.8085 35.1487 26.8012 35.2011 26.7932 35.2556C26.7035 35.8931 26.6185 36.5306 26.5422 37.1701C26.5355 37.2285 26.5282 37.2869 26.5209 37.3474C26.4871 37.6303 26.4539 37.9131 26.4213 38.1967C26.2546 39.6211 25.9412 40.9034 24.7871 41.863C23.9762 42.4354 23.18 42.5237 22.2198 42.5211C22.0604 42.5211 21.901 42.5224 21.7423 42.5237C20.5769 42.529 19.7435 42.272 18.8809 41.4606C17.9133 40.4831 17.7394 39.2399 17.5826 37.9258C17.57 37.8208 17.5567 37.7153 17.5435 37.6103C17.5103 37.3354 17.4764 37.0612 17.4439 36.7869C17.3901 36.3453 17.3363 35.9044 17.2818 35.4628C17.2632 35.3094 17.2446 35.156 17.226 35.0026C17.2148 34.9089 17.2035 34.8146 17.1922 34.721C17.1822 34.6393 17.1723 34.5576 17.1623 34.4733C17.139 34.3106 17.1112 34.1579 17.0667 33.9998C16.9823 33.9925 16.8987 33.9852 16.8123 33.9779C15.87 33.8942 14.9297 33.8019 13.9894 33.7017C13.8294 33.6844 13.6687 33.6678 13.5086 33.6519C11.8305 33.4812 10.341 33.2667 9.19686 31.8901C8.5162 30.8767 8.48498 29.4776 8.65963 28.3095C8.86748 27.3499 9.4087 26.5231 10.2255 25.9746C11.1618 25.4414 12.2363 25.2694 13.2888 25.1293C13.3937 25.1153 13.4993 25.1007 13.6042 25.0861C13.8227 25.0562 14.0412 25.0263 14.259 24.9971C14.5392 24.9593 14.8188 24.9214 15.0984 24.8829C15.3667 24.8457 15.6349 24.8092 15.9032 24.7727C15.9796 24.762 15.9796 24.762 16.0573 24.7514C16.2007 24.7322 16.3442 24.7129 16.4876 24.6937C16.5693 24.6824 16.651 24.6717 16.7346 24.6604C16.9339 24.6365 16.9339 24.6365 17.1331 24.6365C17.1357 24.6 17.139 24.5635 17.1417 24.5256C17.2254 23.5209 17.3223 22.5188 17.4312 21.5168C17.4485 21.3601 17.4651 21.2033 17.481 21.0466C17.7978 18.0006 17.7978 18.0006 18.9924 16.9334C19.713 16.3789 20.4786 16.1286 21.3831 16.1233Z" fill="#FAFDFF"/>
<path d="M16.0703 66.3398C16.1739 66.3896 16.2775 66.4395 16.3818 66.4893C16.5471 66.5484 16.5471 66.5484 16.7789 66.567C17.0505 66.5995 17.3035 66.6632 17.5664 66.7383C17.6627 66.7655 17.759 66.7934 17.8546 66.8206C17.9051 66.8346 17.9549 66.8492 18.0061 66.8638C18.275 66.9408 18.5446 67.0159 18.8142 67.0916C18.8687 67.1068 18.9238 67.1221 18.9802 67.1374C25.0697 68.8327 31.4015 69.7465 42.0093 70.1509C42.4183 70.1496 42.8274 70.1502 43.2364 70.1516C45.4099 70.1569 47.5701 70.0865 49.7383 69.9258C49.7881 69.9218 49.8379 69.9185 49.8897 69.9145C50.4362 69.874 50.9814 69.8262 51.5273 69.7724C51.5983 69.7651 51.6694 69.7584 51.7424 69.7511C53.2273 69.6077 54.7041 69.4171 56.1797 69.1953C56.2321 69.1873 56.2846 69.1794 56.3391 69.1714C60.0014 68.6262 63.5973 67.8001 67.1746 66.8538C67.2576 66.8319 67.3413 66.81 67.4269 66.7874C67.577 66.7476 67.7271 66.7077 67.8772 66.6672C67.9422 66.65 68.0073 66.6327 68.0744 66.6148C68.1295 66.6002 68.1846 66.5855 68.2417 66.5703C68.4084 66.5371 68.5611 66.5337 68.7305 66.5391C68.7305 66.4952 68.7305 66.4514 68.7305 66.4062C68.8294 66.373 68.8294 66.373 68.9297 66.3398C68.8208 66.6234 68.607 66.8093 68.3938 67.0165C68.3546 67.0557 68.3154 67.0942 68.2743 67.1347C68.1488 67.2589 68.0226 67.3824 67.8964 67.5059C67.7297 67.6693 67.5637 67.8327 67.3977 67.996C67.3399 68.0525 67.3399 68.0525 67.2815 68.1096C67.1181 68.2703 67.0112 68.3772 66.9375 68.5977C66.8498 68.5757 66.7622 68.5538 66.6719 68.5312C66.6719 68.597 66.6719 68.6627 66.6719 68.7305C66.5769 68.8307 66.5769 68.8307 66.4434 68.9377C66.1705 69.1648 65.9288 69.4118 65.6877 69.6721C65.5244 69.8082 65.4175 69.8275 65.2109 69.8594C65.1399 69.9789 65.1399 69.9789 65.0781 70.125C64.9121 70.3076 64.9121 70.3076 64.7461 70.457C64.7023 70.457 64.6584 70.457 64.6133 70.457C64.6133 70.5009 64.6133 70.5447 64.6133 70.5898C64.4373 70.6868 64.355 70.7227 64.1484 70.7227C64.1318 70.7625 64.1152 70.8023 64.0986 70.8429C64.0037 71.0095 63.9114 71.0866 63.75 71.1875C63.7062 71.1875 63.6623 71.1875 63.6172 71.1875C63.6172 71.2313 63.6172 71.2752 63.6172 71.3203C63.3589 71.5919 63.1039 71.7852 62.7539 71.918C62.6975 71.9771 62.6417 72.0355 62.5839 72.0966C62.5301 72.1471 62.477 72.1975 62.4219 72.25C62.2685 72.2374 62.2685 72.2374 62.1562 72.1836C62.1523 72.2208 62.1483 72.2573 62.1436 72.2958C62.0653 72.5183 61.9351 72.6285 61.7578 72.7812C61.6482 72.8284 61.5373 72.8729 61.4258 72.9141C61.3766 72.9652 61.3766 72.9652 61.3262 73.0177C61.2266 73.1133 61.2266 73.1133 61.0566 73.1425C61.0028 73.1545 60.9496 73.1671 60.8945 73.1797C60.8494 73.2673 60.8049 73.3563 60.7617 73.4453C60.6521 73.4925 60.5412 73.5363 60.4297 73.5781C60.3719 73.6246 60.3148 73.6711 60.2557 73.7189C60.0977 73.8438 60.0977 73.8438 59.8984 73.8438C59.8832 73.8849 59.8686 73.9261 59.8526 73.9686C59.7384 74.1532 59.6348 74.1671 59.4336 74.2422C59.3207 74.3279 59.2105 74.4168 59.1016 74.5078C58.8671 74.6845 58.638 74.8485 58.3711 74.9727C58.3133 75.0085 58.2562 75.0437 58.1971 75.0802C58.0391 75.1719 58.0391 75.1719 57.9062 75.1719C57.9062 75.2157 57.9062 75.2595 57.9062 75.3047C57.7734 75.2383 57.7734 75.2383 57.707 75.1719C57.707 75.2376 57.707 75.3034 57.707 75.3711C57.5536 75.4873 57.5536 75.4873 57.375 75.5703C57.3093 75.5484 57.2435 75.5265 57.1758 75.5039C57.1539 75.5916 57.132 75.6792 57.1094 75.7695C56.9998 75.7914 56.8902 75.8134 56.7773 75.8359C56.7554 75.9017 56.7335 75.9674 56.7109 76.0352C56.5642 76.1275 56.5642 76.1275 56.3829 76.2138C56.2939 76.257 56.2939 76.257 56.2029 76.3014C56.0469 76.3672 56.0469 76.3672 55.9141 76.3672C55.9141 76.411 55.9141 76.4548 55.9141 76.5C55.8649 76.5179 55.8151 76.5359 55.7646 76.5538C55.5847 76.6229 55.5847 76.6229 55.4598 76.7278C55.3018 76.8427 55.1471 76.913 54.9678 76.9901C54.6816 77.1156 54.4266 77.2557 54.1709 77.435C54.0547 77.4961 54.0547 77.4961 53.7891 77.4961C53.7891 77.5399 53.7891 77.5837 53.7891 77.6289C53.7406 77.6475 53.6921 77.6661 53.6423 77.686C53.4723 77.7557 53.3096 77.8321 53.1456 77.9151C53.0586 77.9589 53.0586 77.9589 52.9703 78.0041C52.9118 78.0333 52.8534 78.0632 52.793 78.0938C52.6303 78.1754 52.4676 78.2564 52.3049 78.3368C52.1767 78.4012 52.0499 78.4676 51.9237 78.5354C51.8546 78.5719 51.7856 78.6084 51.7139 78.6456C51.6508 78.6795 51.587 78.714 51.522 78.7485C51.3121 78.8322 51.1574 78.8382 50.9336 78.8242C50.9336 78.868 50.9336 78.9119 50.9336 78.957C50.8273 79.0035 50.7211 79.0487 50.6142 79.0938C50.5544 79.1197 50.4953 79.145 50.4342 79.1709C50.2695 79.2227 50.2695 79.2227 50.0703 79.1562C50.0703 79.222 50.0703 79.2877 50.0703 79.3555C49.6221 79.4883 49.6221 79.4883 49.4727 79.4883C49.4727 79.5321 49.4727 79.5759 49.4727 79.6211C49.3717 79.6477 49.3717 79.6477 49.2695 79.6749C49.0171 79.7466 48.7834 79.8482 48.543 79.9531C48.4102 79.9976 48.2773 80.0414 48.1445 80.0859C48.0323 80.1344 47.9194 80.1836 47.8072 80.2327C47.6159 80.3111 47.42 80.3748 47.2235 80.4386C47.1066 80.4764 46.9904 80.5176 46.8748 80.5588C46.6836 80.6172 46.6836 80.6172 46.4432 80.6504C46.2407 80.6803 46.1278 80.7201 45.9531 80.8164C45.8648 80.8383 45.7758 80.8609 45.6875 80.8828C45.645 80.9061 45.6025 80.9293 45.5587 80.9532C45.3927 81.0289 45.2711 81.0156 45.0898 81.0156C44.9789 81.0595 44.868 81.1039 44.7578 81.1484C44.6781 81.1591 44.5991 81.1704 44.5174 81.1816C44.285 81.1996 44.285 81.1996 44.0938 81.3477C43.9337 81.3583 43.9337 81.3583 43.7577 81.3516C43.518 81.3384 43.518 81.3384 43.2969 81.4141C43.0777 81.44 42.8573 81.4479 42.6368 81.4599C42.5757 81.4639 42.5146 81.4679 42.4522 81.4718C42.3639 81.4765 42.3639 81.4765 42.2742 81.4811C42.2204 81.4845 42.1666 81.4871 42.1109 81.4904C41.9688 81.4805 41.9688 81.4805 41.7695 81.3477C41.5464 81.3224 41.3253 81.3138 41.1008 81.3038C40.9062 81.2812 40.9062 81.2812 40.7734 81.1484C40.6234 81.1391 40.4779 81.1484 40.3279 81.1564C40.1559 81.1471 40.0609 81.096 39.9102 81.0156C39.8318 81.005 39.7541 80.9937 39.6737 80.9824C39.4453 80.9492 39.4453 80.9492 39.2461 80.8164C39.1139 80.7925 38.9805 80.7706 38.8477 80.75C38.6916 80.7095 38.5375 80.6637 38.3828 80.6172C38.3828 80.5734 38.3828 80.5295 38.3828 80.4844C38.3091 80.487 38.2347 80.4897 38.1584 80.4923C37.918 80.4844 37.918 80.4844 37.7852 80.3516C37.653 80.325 37.5202 80.3024 37.3867 80.2852C37.3867 80.2413 37.3867 80.1975 37.3867 80.1523C37.325 80.155 37.2632 80.1577 37.2001 80.1603C36.9883 80.1523 36.9883 80.1523 36.7891 80.0195C36.6875 79.9863 36.5852 79.9558 36.4823 79.9279C36.1947 79.8455 35.9291 79.7406 35.6582 79.6151C35.5539 79.5673 35.4477 79.5248 35.3407 79.4843C35.1953 79.4219 35.1953 79.4219 35.0705 79.3183C34.9277 79.2061 34.9277 79.2061 34.7139 79.1934C34.4529 79.1543 34.2816 79.0772 34.0531 78.953C33.9236 78.8813 33.9236 78.8813 33.7344 78.8242C33.7344 78.7804 33.7344 78.7366 33.7344 78.6914C33.6208 78.6668 33.6208 78.6668 33.5053 78.6416C33.1898 78.5626 32.9096 78.4351 32.6181 78.293C32.5636 78.2671 32.5098 78.2412 32.4541 78.2139C31.6499 77.8241 30.8623 77.4011 30.082 76.9648C30.082 76.921 30.082 76.8772 30.082 76.832C29.9725 76.832 29.8629 76.832 29.75 76.832C29.75 76.7882 29.75 76.7444 29.75 76.6992C29.7095 76.6866 29.6683 76.6733 29.6265 76.66C29.5727 76.6428 29.5189 76.6255 29.4638 76.6076C29.4107 76.591 29.3575 76.5737 29.3024 76.5564C29.1523 76.5 29.1523 76.5 28.9531 76.3672C28.9531 76.3014 28.9531 76.2357 28.9531 76.168C28.8934 76.1905 28.8934 76.1905 28.8329 76.2138C28.7605 76.2238 28.7605 76.2238 28.6875 76.2344C28.5919 76.1514 28.5919 76.1514 28.4883 76.0352C28.3256 75.9282 28.1709 75.8419 27.9902 75.7695C27.5194 75.5809 27.0991 75.2463 26.6827 74.96C26.4934 74.8379 26.3009 74.7376 26.0977 74.6406C26.0977 74.5968 26.0977 74.553 26.0977 74.5078C26.0226 74.4899 25.9469 74.472 25.8692 74.454C25.7915 74.4281 25.7132 74.4016 25.6328 74.375C25.6109 74.3093 25.589 74.2435 25.5664 74.1758C25.5173 74.1705 25.4675 74.1652 25.417 74.1592C25.1985 74.0994 25.1109 74.0177 24.9688 73.8438C24.9688 73.7999 24.9688 73.7561 24.9688 73.7109C24.903 73.7329 24.8373 73.7548 24.7695 73.7773C24.66 73.7036 24.66 73.7036 24.5451 73.5947C24.3658 73.4261 24.1852 73.3039 23.9727 73.1797C23.8624 73.1046 23.7535 73.0283 23.6446 72.9513C23.4587 72.8198 23.2721 72.6896 23.0802 72.5654C22.9367 72.4671 22.8325 72.3715 22.7109 72.25C22.6605 72.2201 22.6093 72.1896 22.5575 72.1584C22.3789 72.0508 22.3789 72.0508 22.1757 71.8808C22.021 71.752 21.8975 71.663 21.7148 71.5859C21.7148 71.5421 21.7148 71.4983 21.7148 71.4531C21.6763 71.4352 21.6385 71.4173 21.5986 71.3993C21.3954 71.2918 21.2214 71.1975 21.1172 70.9883C21.0289 70.9438 20.9399 70.8993 20.8516 70.8555C20.7639 70.7831 20.6782 70.708 20.5939 70.631C20.4379 70.4909 20.2937 70.3734 20.1171 70.2578C19.9099 70.117 19.7532 69.961 19.5839 69.7784C19.4544 69.6509 19.4544 69.6509 19.2724 69.542C18.9676 69.3314 18.7286 69.0685 18.4749 68.7995C18.2438 68.5611 18.0426 68.3958 17.7305 68.2656C17.7305 68.2218 17.7305 68.178 17.7305 68.1328C17.6647 68.1109 17.599 68.089 17.5312 68.0664C17.5312 68.0226 17.5312 67.9787 17.5312 67.9336C17.4874 67.9336 17.4436 67.9336 17.3984 67.9336C17.3984 67.8898 17.3984 67.8459 17.3984 67.8008C17.3327 67.7789 17.267 67.757 17.1992 67.7344C17.172 67.6879 17.1448 67.6421 17.1169 67.5943C16.9562 67.3306 16.7443 67.138 16.5225 66.9249C16.4369 66.8425 16.3519 66.7602 16.2669 66.6772C16.229 66.6413 16.1912 66.6048 16.1527 66.5676C16.0703 66.4727 16.0703 66.4727 16.0703 66.3398Z" fill="#425DA1"/>
<path d="M76.8901 58.4956C77.005 58.4976 77.005 58.4976 77.1219 58.4989C77.1797 58.5009 77.2374 58.5022 77.2965 58.5035C77.2965 58.5474 77.2965 58.5918 77.2965 58.6363C77.4068 58.6363 77.5157 58.6363 77.6286 58.6363C77.6286 58.5932 77.6286 58.5487 77.6286 58.5035C78.4181 58.5035 79.2064 58.5035 80.0192 58.5035C80.0192 58.5474 80.0192 58.5918 80.0192 58.6363C80.6547 58.6363 81.2909 58.6363 81.945 58.6363C81.945 58.6589 81.945 58.6802 81.945 58.7027C79.9953 58.7027 78.0443 58.7027 76.0348 58.7027C76.0348 58.6808 76.0348 58.6596 76.0348 58.6363C76.3317 58.5221 76.5734 58.4889 76.8901 58.4956Z" fill="#FAFDFF"/>
<path d="M3.60734 58.496C3.67574 58.496 3.74414 58.496 3.81453 58.4966C3.89156 58.4966 3.96859 58.4966 4.04761 58.4966C4.17379 58.4966 4.17379 58.4966 4.30195 58.4973C4.43011 58.4973 4.43011 58.4973 4.56093 58.498C4.78804 58.498 5.01582 58.4986 5.24293 58.4993C5.47535 58.5 5.70711 58.5006 5.93886 58.5006C6.39441 58.5013 6.84929 58.5026 7.30484 58.5039C7.30484 58.5478 7.30484 58.5916 7.30484 58.6368C7.41441 58.6368 7.52398 58.6368 7.63687 58.6368C7.63687 58.6587 7.63687 58.6806 7.63687 58.7032C6.14672 58.7032 4.65656 58.7032 3.12125 58.7032C3.09933 58.6593 3.07742 58.6155 3.05484 58.5703C3.13453 58.5723 3.13453 58.5723 3.21687 58.5743C3.41211 58.5697 3.41742 58.5059 3.60734 58.496Z" fill="#FAFDFF"/>
<path d="M35.2617 9.42969C35.3055 9.42969 35.3494 9.42969 35.3945 9.42969C35.5008 9.54324 35.5944 9.6641 35.6907 9.78629C35.7936 9.91246 35.7936 9.91246 35.9922 9.96094C36.0108 9.99813 36.0287 10.0353 36.0473 10.0738C36.1582 10.2923 36.3282 10.4457 36.5009 10.6157C36.538 10.6522 36.5746 10.6888 36.6124 10.7259C36.7293 10.8421 36.8462 10.9577 36.963 11.0732C37.0427 11.1523 37.1224 11.2306 37.2014 11.3096C37.396 11.5022 37.5906 11.6948 37.7852 11.8867C37.5242 11.8867 37.4425 11.7944 37.2539 11.6211C37.2539 11.5773 37.2539 11.5334 37.2539 11.4883C37.1882 11.4664 37.1224 11.4445 37.0547 11.4219C37.0547 11.378 37.0547 11.3342 37.0547 11.2891C37.0109 11.2891 36.967 11.2891 36.9219 11.2891C36.7811 11.1642 36.7811 11.1642 36.6562 11.0234C36.6562 10.9796 36.6562 10.9358 36.6562 10.8906C36.6124 10.8906 36.5686 10.8906 36.5234 10.8906C36.4278 10.791 36.4278 10.791 36.3242 10.6622C36.1814 10.4822 36.1814 10.4822 35.9922 10.3594C35.9922 10.3155 35.9922 10.2717 35.9922 10.2266C35.9484 10.2266 35.9045 10.2266 35.8594 10.2266C35.7186 10.1017 35.7186 10.1017 35.5938 9.96094C35.5938 9.91711 35.5938 9.87328 35.5938 9.82812C35.528 9.80621 35.4623 9.7843 35.3945 9.76172C35.3155 9.59172 35.3155 9.59172 35.2617 9.42969Z" fill="#A2CFFD"/>
<path d="M3.25391 51.4648C3.59457 51.4582 3.91465 51.4621 4.25 51.5312C4.01891 51.6733 3.83762 51.678 3.56934 51.672C3.49762 51.6713 3.4259 51.67 3.35219 51.6687C3.29773 51.6673 3.24328 51.6653 3.1875 51.664C3.20941 51.5983 3.23133 51.5325 3.25391 51.4648Z" fill="#EBF5FE"/>
<path d="M77.5625 9.36328C77.8447 9.39449 77.9742 9.56051 78.1602 9.76172C78.1382 9.82746 78.1163 9.8932 78.0938 9.96094C77.8095 9.79426 77.6521 9.68734 77.5625 9.36328Z" fill="#4193FC"/>
<path d="M79.9531 51.3984C80.1723 51.3984 80.3914 51.3984 80.6172 51.3984C80.6172 51.4204 80.6172 51.4423 80.6172 51.4648C80.398 51.4648 80.1789 51.4648 79.9531 51.4648C79.9531 51.4429 79.9531 51.421 79.9531 51.3984Z" fill="#A2CFFD"/>
<path d="M42.2344 81.4805C42.4316 81.4805 42.6288 81.4805 42.832 81.4805C42.832 81.5024 42.832 81.5243 42.832 81.5469C42.6348 81.5469 42.4376 81.5469 42.2344 81.5469C42.2344 81.525 42.2344 81.503 42.2344 81.4805Z" fill="#000002"/>
<path d="M41.1719 81.3477C41.3691 81.3477 41.5663 81.3477 41.7695 81.3477C41.7695 81.3696 41.7695 81.3915 41.7695 81.4141C41.5723 81.4141 41.3751 81.4141 41.1719 81.4141C41.1719 81.3921 41.1719 81.3702 41.1719 81.3477Z" fill="#000002"/>
<path d="M43.4297 81.3477C43.5612 81.3477 43.6927 81.3477 43.8281 81.3477C43.8281 81.3696 43.8281 81.3915 43.8281 81.4141C43.6966 81.4141 43.5652 81.4141 43.4297 81.4141C43.4297 81.3921 43.4297 81.3702 43.4297 81.3477Z" fill="#000002"/>
<path d="M82.0781 58.5703C82.2096 58.5703 82.3411 58.5703 82.4766 58.5703C82.4766 58.5922 82.4766 58.6141 82.4766 58.6367C82.3451 58.6367 82.2136 58.6367 82.0781 58.6367C82.0781 58.6148 82.0781 58.5929 82.0781 58.5703Z" fill="#000002"/>
<path d="M4.38281 51.3984C4.49238 51.3984 4.60195 51.3984 4.71484 51.3984C4.71484 51.4204 4.71484 51.4423 4.71484 51.4648C4.60527 51.4648 4.4957 51.4648 4.38281 51.4648C4.38281 51.4429 4.38281 51.421 4.38281 51.3984Z" fill="#A2CFFD"/>
<path d="M84.668 34.4648C84.6899 34.4648 84.7118 34.4648 84.7344 34.4648C84.7344 34.5744 84.7344 34.684 84.7344 34.7969C84.7125 34.7969 84.6905 34.7969 84.668 34.7969C84.668 34.6873 84.668 34.5777 84.668 34.4648Z" fill="#000002"/>
<path d="M44.4258 81.1484C44.6914 81.2148 44.6914 81.2148 44.6914 81.2148L44.4258 81.1484Z" fill="#000002"/>
<path d="M45.0898 81.0156C45.3555 81.082 45.3555 81.082 45.3555 81.082L45.0898 81.0156Z" fill="#000002"/>
<path d="M46.2188 80.6836C46.4844 80.75 46.4844 80.75 46.4844 80.75L46.2188 80.6836Z" fill="#000002"/>
<path d="M2.65625 58.5703C2.92188 58.6367 2.92188 58.6367 2.92188 58.6367L2.65625 58.5703Z" fill="#000002"/>
<path d="M40.5742 81.1484C40.7734 81.2148 40.7734 81.2148 40.7734 81.2148L40.5742 81.1484Z" fill="#000002"/>
<path d="M39.7109 81.0156C39.9102 81.082 39.9102 81.082 39.9102 81.082L39.7109 81.0156Z" fill="#000002"/>
<path d="M38.582 80.6836C38.7812 80.75 38.7812 80.75 38.7812 80.75L38.582 80.6836Z" fill="#000002"/>
<path d="M37.5859 80.3516C37.7852 80.418 37.7852 80.418 37.7852 80.418L37.5859 80.3516Z" fill="#000002"/>
<path d="M48.2109 80.0195C48.4102 80.0859 48.4102 80.0859 48.4102 80.0859L48.2109 80.0195Z" fill="#000002"/>
<path d="M6.77344 9.62891C6.83918 9.66211 6.83918 9.66211 6.90625 9.69531C6.84051 9.72852 6.84051 9.72852 6.77344 9.76172C6.77344 9.71789 6.77344 9.67406 6.77344 9.62891Z" fill="#00A0FE"/>
<path d="M45.7539 80.8164C45.8867 80.8828 45.8867 80.8828 45.8867 80.8828L45.7539 80.8164Z" fill="#000002"/>
<path d="M39.1133 80.8164C39.2461 80.8828 39.2461 80.8828 39.2461 80.8828L39.1133 80.8164Z" fill="#000002"/>
<path d="M38.1172 80.4844C38.25 80.5508 38.25 80.5508 38.25 80.5508L38.1172 80.4844Z" fill="#000002"/>
<path d="M37.1211 80.1523C37.2539 80.2188 37.2539 80.2188 37.2539 80.2188L37.1211 80.1523Z" fill="#000002"/>
<path d="M34.6641 79.1562C34.7969 79.2227 34.7969 79.2227 34.7969 79.2227L34.6641 79.1562Z" fill="#000002"/>
<path d="M51.0664 78.8242C51.1992 78.8906 51.1992 78.8906 51.1992 78.8906L51.0664 78.8242Z" fill="#000002"/>
<path d="M57.2422 75.5703C57.375 75.6367 57.375 75.6367 57.375 75.6367L57.2422 75.5703Z" fill="#00A0FE"/>
<path d="M62.8203 71.8516C62.9531 71.918 62.9531 71.918 62.9531 71.918L62.8203 71.8516Z" fill="#000002"/>
<path d="M63.6172 71.1875C63.75 71.2539 63.75 71.2539 63.75 71.2539L63.6172 71.1875Z" fill="#A2CFFD"/>
<path d="M1.32812 57.9062C1.46094 57.9727 1.46094 57.9727 1.46094 57.9727L1.32812 57.9062Z" fill="#000002"/>
<path d="M62.9531 3.45312C63.0859 3.51953 63.0859 3.51953 63.0859 3.51953L62.9531 3.45312Z" fill="#00A0FE"/>
<path d="M20.7188 3.45312C20.8516 3.51953 20.8516 3.51953 20.8516 3.51953L20.7188 3.45312Z" fill="#00A0FE"/>
</g>
<defs>
<clipPath id="clip0_25_627">
<rect width="85" height="85" fill="white"/>
</clipPath>
</defs>
</svg>
