<svg width="90" height="90" viewBox="0 0 90 90" fill="none" xmlns="http://www.w3.org/2000/svg">
<path d="M34.536 81.192C27.3559 81.1818 20.473 78.3237 15.3977 73.2448C10.3223 68.1658 7.46908 61.2809 7.464 54.1008C7.464 30.6576 31.4256 4.8336 32.424 3.7392C32.6878 3.42724 33.0175 3.17762 33.3893 3.00831C33.7612 2.839 34.1659 2.75419 34.5744 2.76C34.977 2.76216 35.3747 2.84871 35.7418 3.01407C36.1089 3.17942 36.4372 3.41991 36.7056 3.72C37.3392 4.4496 52.2768 21.5184 58.728 39.3744C58.8871 39.7369 58.9697 40.1283 58.9708 40.5241C58.9719 40.92 58.8913 41.3118 58.7341 41.6751C58.577 42.0384 58.3466 42.3655 58.0575 42.6358C57.7683 42.9061 57.4264 43.1139 57.0533 43.2462C56.6803 43.3785 56.2839 43.4325 55.889 43.4047C55.4941 43.377 55.1092 43.2681 54.7583 43.085C54.4073 42.9018 54.0979 42.6483 53.8494 42.3402C53.6008 42.0321 53.4184 41.6761 53.3136 41.2944C48.6288 28.296 38.7984 15.336 34.4784 10.0176C28.7184 16.8528 13.224 36.7056 13.224 53.9856C13.2291 59.6381 15.4755 65.0579 19.4706 69.0566C23.4657 73.0554 28.8835 75.3066 34.536 75.3168C37.9821 75.3274 41.3779 74.49 44.424 72.8784C45.1013 72.5219 45.8924 72.4491 46.6233 72.676C47.3543 72.9028 47.9652 73.4107 48.3216 74.088C48.6781 74.7653 48.7509 75.5564 48.524 76.2873C48.2972 77.0183 47.7893 77.6292 47.112 77.9856C43.2395 80.0518 38.9251 81.1518 34.536 81.192Z" fill="#425DA1"/>
<path d="M46.3632 44.1744C48.1691 44.1331 49.961 44.5006 51.6048 45.2496C53.0438 45.9225 54.3061 46.9218 55.2912 48.168C56.2879 49.4606 57.0247 50.9342 57.4608 52.5072C58.4087 56.0676 58.4087 59.814 57.4608 63.3744C57.0289 64.9607 56.2919 66.4476 55.2912 67.752C54.3007 68.9928 53.0398 69.991 51.6048 70.6704C49.9595 71.4127 48.1676 71.7737 46.3632 71.7264C44.575 71.7742 42.7984 71.4268 41.16 70.7088C39.7256 70.0456 38.4591 69.0678 37.4544 67.848C36.4217 66.5529 35.6579 65.0646 35.208 63.4704C34.6939 61.6728 34.4417 59.8104 34.4592 57.9408C34.4505 56.1147 34.6764 54.295 35.1312 52.5264C35.5623 50.9419 36.3065 49.46 37.32 48.168C38.2935 46.918 39.5506 45.9176 40.9872 45.2496C42.6756 44.4915 44.5132 44.124 46.3632 44.1744ZM46.3632 67.464C47.5084 67.5089 48.6459 67.2576 49.6656 66.7344C50.5289 66.2803 51.2674 65.6209 51.816 64.8144C52.3825 63.8961 52.7731 62.8804 52.968 61.8192C53.2052 60.6049 53.321 59.37 53.3136 58.1328C53.3173 56.8748 53.1886 55.6199 52.9296 54.3888C52.7095 53.3048 52.307 52.266 51.7392 51.3168C51.2021 50.4657 50.4635 49.7601 49.5888 49.2624C48.5834 48.7633 47.4761 48.5037 46.3536 48.5037C45.2311 48.5037 44.1238 48.7633 43.1184 49.2624C42.2479 49.7657 41.5105 50.4701 40.968 51.3168C40.4002 52.2453 39.9974 53.2652 39.7776 54.3312C39.5192 55.5364 39.3904 56.7658 39.3936 57.9984C39.3935 59.1654 39.5092 60.3295 39.7392 61.4736C39.9441 62.5561 40.3338 63.5953 40.8912 64.5456C41.4483 65.4037 42.1977 66.1203 43.08 66.6384C44.0751 67.2166 45.213 67.5027 46.3632 67.464ZM77.7552 68.808C77.7552 70.2672 77.3328 70.9776 76.488 70.9776H62.7984C62.3952 70.9776 62.0496 70.6896 61.7424 70.1136C61.4168 69.4737 61.2771 68.7553 61.3392 68.04C61.3754 67.6316 61.446 67.2269 61.5504 66.8304C61.6716 66.409 61.8666 66.0124 62.1264 65.6592C62.4556 65.2483 62.8291 64.8748 63.24 64.5456L65.2752 62.76C66.0432 62.0688 66.8496 61.3008 67.7136 60.4368C68.5622 59.5967 69.3513 58.6985 70.0752 57.7488C70.7759 56.8545 71.3808 55.8893 71.88 54.8688C72.3404 53.9644 72.5837 52.9652 72.5904 51.9504C72.6293 51.1312 72.3547 50.3279 71.8224 49.704C71.5497 49.4224 71.2206 49.2016 70.8566 49.056C70.4927 48.9105 70.1021 48.8434 69.7104 48.8592C69.2977 48.8284 68.8838 48.8998 68.5053 49.0673C68.1268 49.2348 67.7955 49.493 67.5408 49.8192C66.9674 50.6579 66.6965 51.6668 66.7728 52.68C66.8034 52.9849 66.7733 53.2929 66.6843 53.5862C66.5954 53.8795 66.4492 54.1522 66.2544 54.3888C65.7504 54.7735 65.1188 54.952 64.488 54.888C63.7738 54.9602 63.055 54.8057 62.4336 54.4464C62.227 54.2049 62.0726 53.9234 61.9801 53.6194C61.8876 53.3154 61.859 52.9956 61.896 52.68C61.7859 50.5258 62.5155 48.4129 63.9312 46.7856C64.7526 46.0059 65.7302 45.4093 66.7992 45.0354C67.8682 44.6614 69.0044 44.5184 70.1328 44.616C71.119 44.5438 72.1095 44.6771 73.0415 45.0076C73.9736 45.3381 74.8268 45.8586 75.5472 46.536C76.1974 47.2397 76.7018 48.0652 77.0313 48.9648C77.3608 49.8644 77.509 50.8204 77.4672 51.7776C77.4688 52.673 77.3195 53.5622 77.0256 54.408C76.7115 55.3106 76.3196 56.1843 75.8544 57.0192C75.3537 57.8935 74.7957 58.7338 74.184 59.5344C73.5696 60.3408 72.936 61.1088 72.264 61.8192C71.592 62.5296 70.6704 63.5088 69.8064 64.3152C68.9424 65.1216 68.04 65.9088 67.0992 66.6768H76.488C77.3328 66.6384 77.7552 67.368 77.7552 68.808Z" fill="#12DBDB"/>
<path d="M23.0736 66.2352C22.563 66.235 22.0615 66.1 21.6198 65.8437C21.1782 65.5875 20.812 65.2192 20.5584 64.776C13.5696 52.5456 19.5984 44.4624 19.8672 44.136C20.0979 43.836 20.3855 43.5843 20.7134 43.3954C21.0414 43.2065 21.4034 43.084 21.7786 43.035C22.1539 42.9859 22.5352 43.0113 22.9007 43.1096C23.2662 43.208 23.6088 43.3773 23.9088 43.608C24.2088 43.8387 24.4605 44.1263 24.6494 44.4542C24.8383 44.7822 24.9608 45.1442 25.0098 45.5195C25.0589 45.8948 25.0335 46.276 24.9352 46.6415C24.8369 47.007 24.6675 47.3496 24.4368 47.6496C24.2832 47.8416 20.5968 53.16 25.5696 61.9152C25.9205 62.5703 26.0045 63.3358 25.8041 64.0514C25.6037 64.767 25.1344 65.3775 24.4944 65.7552C24.0707 66.0362 23.5809 66.2017 23.0736 66.2352Z" fill="#425DA1"/>
</svg>
