<svg width="149" height="61" viewBox="0 0 149 61" fill="none" xmlns="http://www.w3.org/2000/svg">
<path d="M114.073 3.35224C114.814 3.85165 114.814 3.85165 115.852 4.14832C116.651 3.7357 117.393 3.30672 118.153 2.83294C122.964 0.0214167 128.514 -0.625232 134.014 0.573499C139.293 2.14312 143.606 5.48108 146.387 10.1991C148.955 15.2381 149.785 20.7996 148.18 26.2906C147.921 26.9831 147.649 27.6707 147.361 28.3513C147.245 28.6511 147.129 28.9509 147.01 29.2598C144.875 34.1461 139.693 38.1193 135.957 41.8381C135.556 42.238 135.556 42.238 135.146 42.646C133.736 44.0507 132.324 45.4543 130.912 46.857C129.455 48.3041 128.003 49.7551 126.551 51.2071C125.43 52.3273 124.305 53.4444 123.18 54.5606C122.643 55.0947 122.107 55.6299 121.572 56.1664C120.827 56.9126 120.078 57.6543 119.328 58.3951C119.109 58.6168 118.89 58.8385 118.664 59.0669C117.785 59.9276 117.118 60.5408 115.963 61C114.893 60.9645 114.562 60.6836 113.791 59.9587C113.547 59.7302 113.303 59.5017 113.052 59.2662C111.832 58.0327 110.68 56.7483 109.53 55.451C103.566 48.1912 103.566 48.1912 95.3362 44.5364C93.1769 44.4453 91.0434 44.692 88.9454 45.1882C88.8115 45.6232 88.8115 45.6232 88.6748 46.067C88.1781 47.4588 87.5628 48.7494 86.9014 50.0702C86.7722 50.3295 86.6429 50.5887 86.5098 50.8558C86.2374 51.4006 85.9642 51.9451 85.6903 52.4892C85.2726 53.3211 84.8603 54.1554 84.448 54.9899C84.1819 55.5205 83.9155 56.051 83.6487 56.5814C83.5266 56.8302 83.4045 57.079 83.2786 57.3354C82.629 58.6109 82.0919 59.5775 80.8026 60.2713C79.9175 60.2932 79.9175 60.2932 79.0324 59.9205C77.8358 58.3617 77.1068 56.7419 76.3938 54.9248C76.2858 54.6553 76.1778 54.3858 76.0665 54.1081C75.7252 53.2549 75.3873 52.4005 75.0496 51.5459C74.8175 50.964 74.5851 50.3821 74.3526 49.8003C73.7857 48.3809 73.2219 46.9603 72.6598 45.539C72.0729 45.5313 72.073 45.5313 71.4742 45.5235C70.0232 45.5032 68.5724 45.4761 67.1216 45.4469C66.4935 45.4353 65.8654 45.4254 65.2373 45.4175C64.3346 45.4057 63.4323 45.3874 62.5298 45.3677C62.2487 45.3655 61.9677 45.3632 61.6781 45.3609C59.7173 45.309 59.7173 45.309 58.9742 44.7362C58.4526 44.078 58.2653 43.606 58.0616 42.7976C57.9567 42.3925 57.9567 42.3925 57.8496 41.9793C57.7411 41.5373 57.7411 41.5373 57.6304 41.0863C57.5509 40.7748 57.4713 40.4633 57.3893 40.1424C57.1272 39.1127 56.8703 38.0817 56.6135 37.0507C56.4328 36.3365 56.2518 35.6223 56.0704 34.9082C55.5939 33.0286 55.122 31.1478 54.6509 29.2668C54.1694 27.3476 53.6837 25.4294 53.1984 23.5112C52.2467 19.7471 51.2997 15.9819 50.3557 12.216C49.6895 13.7169 49.3045 15.2541 48.9341 16.8459C48.8667 17.1307 48.7992 17.4155 48.7297 17.709C48.5839 18.3253 48.4386 18.9418 48.2939 19.5584C48.0646 20.5348 47.8333 21.5107 47.6014 22.4865C46.9424 25.2603 46.2863 28.0347 45.6334 30.8098C45.2335 32.5091 44.8306 34.2077 44.4258 35.9059C44.2724 36.5523 44.1201 37.1989 43.969 37.8459C43.7575 38.7507 43.5423 39.6546 43.3263 40.5584C43.2344 40.958 43.2344 40.958 43.1406 41.3658C42.7939 42.7973 42.4163 44.0122 41.5049 45.1882C40.4262 45.4096 40.4262 45.4096 39.1152 45.4088C38.8834 45.4097 38.6517 45.4105 38.413 45.4114C37.9237 45.4111 37.4345 45.4064 36.9453 45.3976C36.1967 45.3856 35.4495 45.3904 34.7008 45.3972C34.2251 45.3948 33.7493 45.3914 33.2736 45.3869C32.6247 45.3812 32.6247 45.3812 31.9626 45.3754C30.8839 45.1882 30.8839 45.1882 30.2438 44.6267C29.7042 43.5507 29.4418 42.5192 29.176 41.3462C29.0957 40.9988 29.0957 40.9988 29.0138 40.6445C28.8447 39.909 28.6804 39.1725 28.5163 38.4359C28.4021 37.9353 28.2875 37.4347 28.1726 36.9342C27.8926 35.711 27.6169 34.4868 27.3436 33.2621C26.4714 36.2118 25.66 39.1511 25.0389 42.1635C24.5385 44.4163 24.5385 44.4163 23.4492 45.1882C22.466 45.3195 22.466 45.3195 21.2599 45.3188C20.8086 45.321 20.3574 45.3232 19.8924 45.3255C19.3996 45.3224 18.9067 45.3191 18.4139 45.3157C17.9091 45.3155 17.4043 45.3157 16.8995 45.3162C15.8421 45.3162 14.7848 45.3125 13.7274 45.3062C12.3705 45.2982 11.0138 45.298 9.65693 45.3004C8.61489 45.3015 7.57288 45.2992 6.53084 45.2958C6.03044 45.2944 5.53004 45.294 5.02963 45.2946C4.33125 45.2947 3.63288 45.2898 2.93452 45.2846C2.53678 45.283 2.13904 45.2813 1.72924 45.2797C0.791049 45.1882 0.791043 45.1882 0.0829766 44.4867C-0.0276589 43.259 -0.0276589 43.259 0.0829766 42.0313C1.28198 41.2394 1.68211 41.2439 3.08561 41.2501C3.48245 41.2502 3.8793 41.2502 4.28817 41.2503C4.71636 41.2539 5.14455 41.2575 5.58571 41.2613C6.24354 41.2628 6.24353 41.2628 6.91465 41.2643C8.07931 41.2675 9.2439 41.2738 10.4085 41.2816C11.5975 41.2888 12.7864 41.292 13.9753 41.2955C16.3072 41.3033 18.6391 41.315 20.9709 41.3298C21.0127 41.0915 21.0545 40.8533 21.0975 40.6079C21.4948 38.3865 21.9529 36.1911 22.4853 33.9979C22.5603 33.6875 22.6354 33.377 22.7127 33.0572C22.8701 32.409 23.0281 31.7608 23.1867 31.1129C23.4284 30.1216 23.6653 29.1293 23.9021 28.1369C24.0565 27.5036 24.2111 26.8703 24.3661 26.2371C24.4358 25.9419 24.5055 25.6467 24.5774 25.3425C25.2418 22.6723 25.2418 22.6723 26.2815 21.6867C27.3436 21.5114 27.3436 21.5114 28.4057 21.6867C29.2895 22.6362 29.653 23.4883 29.9458 24.7346C30.0237 25.0589 30.1016 25.3832 30.1818 25.7174C30.2615 26.0652 30.3412 26.4131 30.4234 26.7715C30.5083 27.1313 30.5932 27.4911 30.6807 27.8618C30.8594 28.6218 31.0363 29.3822 31.2117 30.143C31.4802 31.3063 31.7545 32.4682 32.0297 33.63C32.2026 34.3691 32.3753 35.1084 32.5476 35.8477C32.6294 36.1948 32.7113 36.542 32.7956 36.8997C32.8701 37.2251 32.9447 37.5505 33.0215 37.8857C33.1205 38.3128 33.1205 38.3128 33.2214 38.7486C33.3621 39.5759 33.3621 39.5759 33.3621 41.3298C35.1146 41.214 36.8671 41.0983 38.6726 40.979C38.8421 40.2664 38.8421 40.2664 39.0149 39.5393C40.0795 35.0637 41.1472 30.5888 42.2181 26.1147C42.7686 23.8144 43.3179 21.5139 43.8646 19.2128C44.3921 16.9924 44.9228 14.7727 45.4554 12.5535C45.6582 11.7064 45.8599 10.859 46.0605 10.0114C46.3415 8.82496 46.6263 7.63945 46.9119 6.45409C46.9942 6.10289 47.0764 5.75168 47.1612 5.38983C47.9148 2.2943 47.9148 2.2943 48.9396 0.991407C49.8025 0.640638 49.8025 0.640638 50.7098 0.640638C51.8571 1.22036 52.1098 1.64972 52.5618 2.86103C52.69 3.35085 52.8123 3.84223 52.9298 4.33467C52.9986 4.60357 53.0673 4.87248 53.1381 5.14953C53.365 6.0423 53.5842 6.93675 53.8034 7.83139C53.9616 8.46006 54.1204 9.0886 54.2796 9.71703C54.6995 11.3799 55.113 13.0444 55.5251 14.7092C55.9362 16.3659 56.3528 18.0213 56.7691 19.6767C57.2535 21.6033 57.7373 23.53 58.2179 25.4575C59.2286 29.5092 60.2643 33.5529 61.3503 37.5855C61.4886 38.1041 61.4886 38.1041 61.6297 38.6332C61.7494 39.0761 61.7494 39.0761 61.8714 39.528C62.0388 40.2775 62.0388 40.2775 62.0388 41.3298C62.4175 41.3224 62.7962 41.3151 63.1863 41.3075C64.593 41.2821 65.9996 41.266 67.4064 41.2527C68.0149 41.2457 68.6234 41.2361 69.2319 41.2239C70.1072 41.2069 70.9822 41.199 71.8577 41.1928C72.2649 41.1819 72.2649 41.1819 72.6804 41.1708C73.8698 41.1703 74.6254 41.22 75.6131 41.9034C76.3004 42.8745 76.7447 43.8153 77.1904 44.9169C77.3615 45.3365 77.5326 45.7562 77.709 46.1885C77.7954 46.4056 77.8818 46.6228 77.9709 46.8465C78.2366 47.5139 78.5075 48.179 78.7794 48.8439C80.0945 52.0963 80.0945 52.0963 80.0945 52.9051C80.3282 52.9051 80.5619 52.9051 80.8026 52.9051C80.8996 52.5993 80.9966 52.2935 81.0966 51.9785C81.7642 50.0794 82.7041 48.3208 83.6127 46.5255C83.8985 45.9507 83.8985 45.9507 84.1901 45.3643C84.3752 44.9974 84.5602 44.6304 84.7509 44.2524C84.9188 43.9186 85.0867 43.5848 85.2597 43.2409C85.7311 42.4301 86.061 41.8799 86.8212 41.3298C87.6567 41.1781 87.6567 41.1781 88.6287 41.1503C88.9767 41.1379 89.3246 41.1254 89.6832 41.1126C90.0458 41.1047 90.4083 41.0968 90.7819 41.0886C91.332 41.0707 91.332 41.0707 91.8931 41.0523C92.7987 41.0234 93.7041 40.9991 94.6099 40.979C94.3781 40.7603 94.1462 40.5417 93.9074 40.3164C93.0292 39.4827 92.1564 38.644 91.2865 37.8019C90.9129 37.4421 90.5374 37.0843 90.1598 36.7287C85.5275 32.3602 82.6166 27.5111 82.2201 21.0428C82.2127 15.0836 84.275 10.1027 88.3244 5.7487C95.1876 -0.861344 106.105 -1.82778 114.073 3.35224ZM95.672 5.5514C95.3717 5.69609 95.0714 5.84078 94.762 5.98986C90.7118 8.1497 88.3838 11.5049 86.8212 15.7237C85.6984 19.9022 86.3511 24.3706 88.2816 28.176C90.6862 32.1382 94.5462 35.3503 97.8308 38.5921C98.3422 39.0982 98.8536 39.6044 99.3649 40.1106C100.7 41.4319 102.036 42.7522 103.372 44.0722C104.74 45.4237 106.107 46.7762 107.473 48.1287C110.147 50.7741 112.822 53.4184 115.498 56.0621C117.169 54.6775 118.756 53.2379 120.298 51.7134C120.515 51.4998 120.733 51.2862 120.957 51.066C121.668 50.3665 122.378 49.6656 123.087 48.9645C123.332 48.7231 123.577 48.4817 123.829 48.2331C125.123 46.9563 126.416 45.6786 127.708 44.4C129.035 43.087 130.365 41.7773 131.696 40.4683C132.727 39.4542 133.754 38.4376 134.782 37.4204C135.271 36.9368 135.761 36.4541 136.252 35.9723C140.822 31.4842 144.846 27.1723 144.993 20.4591C144.951 16.0172 143.471 12.4366 140.479 9.1687C140.18 8.90102 139.881 8.63334 139.572 8.35754C139.403 8.18889 139.234 8.02023 139.06 7.84646C135.706 4.67511 131.416 3.97353 126.969 4.05241C123.059 4.22045 119.664 5.98394 116.914 8.70831C115.643 8.93963 114.796 8.94778 113.701 8.22053C113.173 7.78838 112.648 7.35294 112.125 6.91474C107.555 3.45959 100.754 2.97777 95.672 5.5514Z" fill="#C62F2F" fill-opacity="0.9"/>
</svg>
