<svg width="23" height="25" viewBox="0 0 23 25" fill="none" xmlns="http://www.w3.org/2000/svg">
<path d="M22.4653 14.2273L20.4863 7.10725C19.9063 5.02137 18.6457 3.18924 16.9048 1.90208C15.164 0.614919 13.0428 -0.0534067 10.8786 0.00333694C8.71427 0.0600806 6.63107 0.838637 4.96006 2.21525C3.28906 3.59187 2.12616 5.48754 1.65621 7.60094L0.124092 14.4908C-0.0451434 15.2521 -0.0412306 16.0417 0.135542 16.8013C0.312314 17.5608 0.657431 18.271 1.14541 18.8794C1.6334 19.4877 2.25179 19.9787 2.95493 20.3161C3.65806 20.6535 4.428 20.8286 5.20789 20.8286H6.36817C6.60722 22.0058 7.24591 23.0642 8.17603 23.8245C9.10614 24.5847 10.2705 25 11.4718 25C12.673 25 13.8374 24.5847 14.7675 23.8245C15.6976 23.0642 16.3363 22.0058 16.5753 20.8286H17.4482C18.251 20.8286 19.043 20.6431 19.7622 20.2864C20.4815 19.9297 21.1085 19.4116 21.5944 18.7724C22.0802 18.1333 22.4117 17.3905 22.563 16.602C22.7142 15.8136 22.6801 15.0008 22.4653 14.2273ZM11.4718 22.9117C10.8278 22.909 10.2004 22.7075 9.6754 22.3346C9.15038 21.9617 8.7534 21.4357 8.53875 20.8286H14.4047C14.1901 21.4357 13.7931 21.9617 13.2681 22.3346C12.7431 22.7075 12.1157 22.909 11.4718 22.9117ZM19.9354 17.5113C19.6451 17.8963 19.2691 18.2083 18.8372 18.4226C18.4052 18.6368 17.9293 18.7474 17.4471 18.7455H5.20789C4.74001 18.7454 4.27812 18.6403 3.85631 18.4378C3.43451 18.2353 3.06355 17.9407 2.77083 17.5757C2.47811 17.2107 2.2711 16.7847 2.16507 16.3289C2.05904 15.8732 2.0567 15.3995 2.15823 14.9428L3.68931 8.05193C4.05838 6.39192 4.97177 4.90292 6.28428 3.82163C7.59678 2.74034 9.23307 2.12883 10.933 2.08429C12.633 2.03976 14.2991 2.56476 15.6664 3.57585C17.0337 4.58693 18.0238 6.02606 18.4793 7.66447L20.4582 14.7845C20.589 15.2484 20.6098 15.7363 20.519 16.2097C20.4283 16.683 20.2284 17.1287 19.9354 17.5113Z" fill="#0D0C22"/>
</svg>
