<svg width="95" height="101" viewBox="0 0 95 101" fill="none" xmlns="http://www.w3.org/2000/svg">
<path d="M58.1618 41.8802C56.7668 40.4827 54.482 40.4827 53.0844 41.8802L21.8247 73.1425C19.3384 72.4438 16.5642 73.0405 14.6065 74.9955C11.7224 77.8797 11.7224 82.554 14.6065 85.4355C17.4907 88.317 22.165 88.3196 25.0465 85.4355C27.0041 83.4778 27.5982 80.7062 26.8995 78.2173L58.1591 46.9576C59.5593 45.5626 59.5593 43.2778 58.1618 41.8802Z" fill="#00BC07"/>
<path d="M19.9482 100.325C19.8173 100.325 19.6891 100.322 19.5582 100.322C14.0752 100.217 8.9979 97.943 5.26055 93.9125C-1.87128 86.2206 -1.70379 73.857 5.63219 66.3509C9.18633 62.7131 13.8632 60.6088 18.904 60.3576C19.2128 59.9702 19.519 59.6274 19.833 59.3133L62.344 16.8023C62.5586 16.5877 62.8134 16.4173 63.0939 16.3011C63.3743 16.185 63.6749 16.1252 63.9785 16.1252C64.282 16.1252 64.5826 16.185 64.863 16.3011C65.1435 16.4173 65.3983 16.5877 65.6129 16.8023C66.5158 17.7053 66.5158 19.1709 65.6129 20.0712L23.0993 62.5822C22.7407 62.9408 22.3953 63.37 21.9791 63.9641C21.5421 64.5922 20.8511 64.9848 20.0634 64.956H19.9351C15.7581 64.956 11.8559 66.597 8.9377 69.5832C3.29766 75.3541 3.16942 84.8571 8.65243 90.7667C11.5261 93.8681 15.4309 95.619 19.6446 95.6975C23.8635 95.742 27.8286 94.1795 30.8095 91.1959C33.8245 88.1809 35.4158 84.1583 35.2875 79.8687C35.276 79.4925 35.3565 79.1192 35.5221 78.7813C35.6877 78.4433 35.9333 78.1508 36.2376 77.9294C36.7296 77.5708 37.1327 77.2725 37.4624 76.9427L86.4562 27.9489C89.8925 24.5126 90.6358 19.1866 88.2254 15.2844C86.5504 12.5756 83.8102 10.8168 80.7088 10.4557C77.5891 10.0971 74.5375 11.1466 72.3364 13.345C72.1218 13.5597 71.867 13.73 71.5866 13.8462C71.3062 13.9624 71.0056 14.0222 70.702 14.0222C70.3985 14.0222 70.0979 13.9624 69.8174 13.8462C69.537 13.73 69.2822 13.5597 69.0676 13.345C68.1646 12.4421 68.1646 10.9765 69.0676 10.0762C72.2736 6.87012 76.7124 5.33645 81.2454 5.8625C85.76 6.38856 89.7407 8.93508 92.1616 12.853C95.6896 18.5585 94.6663 26.2818 89.7303 31.2178L40.7365 80.2116C40.4755 80.4708 40.2012 80.7163 39.9147 80.947C39.7682 86.0636 37.7215 90.8269 34.0836 94.4648C30.2939 98.2545 25.2873 100.325 19.9482 100.325Z" fill="#00BC07"/>
<path d="M88.864 45.7458C88.2725 45.7458 87.681 45.5207 87.2282 45.068L80.9575 38.7972C80.0545 37.8943 80.0545 36.4286 80.9575 35.5283C81.1721 35.3136 81.4269 35.1433 81.7073 35.0271C81.9878 34.9109 82.2883 34.8511 82.5919 34.8511C82.8955 34.8511 83.196 34.9109 83.4765 35.0271C83.7569 35.1433 84.0117 35.3136 84.2263 35.5283L90.4971 41.7991C91.4 42.702 91.4 44.1677 90.4971 45.068C90.2829 45.2829 90.0284 45.4534 89.7481 45.5697C89.4679 45.686 89.1674 45.7459 88.864 45.7458ZM78.2461 56.3637C77.6546 56.3637 77.0631 56.1387 76.6103 55.6859L70.3395 49.4151C69.4366 48.5122 69.4366 47.0466 70.3395 46.1463C70.5541 45.9316 70.8089 45.7613 71.0894 45.6451C71.3698 45.5289 71.6704 45.4691 71.974 45.4691C72.2775 45.4691 72.5781 45.5289 72.8586 45.6451C73.139 45.7613 73.3938 45.9316 73.6084 46.1463L79.8792 52.417C80.7821 53.32 80.7821 54.7856 79.8792 55.6859C79.6653 55.9013 79.4109 56.0721 79.1305 56.1885C78.8502 56.3048 78.5496 56.3644 78.2461 56.3637ZM67.6255 66.9817C67.034 66.9817 66.4425 66.7566 65.9898 66.3038L59.719 60.033C58.8161 59.1301 58.8161 57.6645 59.719 56.7642C59.9336 56.5495 60.1884 56.3792 60.4688 56.263C60.7493 56.1468 61.0499 56.087 61.3534 56.087C61.657 56.087 61.9576 56.1468 62.238 56.263C62.5184 56.3792 62.7733 56.5495 62.9879 56.7642L69.2586 63.035C70.1616 63.9379 70.1616 65.4035 69.2586 66.3038C69.0444 66.5187 68.7899 66.6892 68.5097 66.8056C68.2294 66.9219 67.9289 66.9817 67.6255 66.9817ZM57.0076 77.5996C56.4161 77.5996 55.8246 77.3745 55.3718 76.9218L49.1011 70.651C48.1981 69.748 48.1981 68.2824 49.1011 67.3821C49.3157 67.1674 49.5705 66.9971 49.8509 66.8809C50.1313 66.7647 50.4319 66.7049 50.7355 66.7049C51.0391 66.7049 51.3396 66.7647 51.6201 66.8809C51.9005 66.9971 52.1553 67.1674 52.3699 67.3821L58.6407 73.6529C59.5436 74.5558 59.5436 76.0214 58.6407 76.9218C58.4269 77.1372 58.1724 77.308 57.8921 77.4243C57.6117 77.5407 57.3111 77.6003 57.0076 77.5996ZM26.711 35.7298C18.4328 35.7298 11.6988 28.9958 11.6988 20.7177C11.6988 12.4395 18.4328 5.70547 26.711 5.70547C30.4091 5.70547 33.9606 7.06379 36.7165 9.52656C37.6692 10.3771 37.7503 11.8402 36.8997 12.7928C36.0491 13.7455 34.5861 13.8266 33.6335 12.976C31.73 11.2728 29.2652 10.3317 26.711 10.3327C20.9846 10.3327 16.3234 14.9912 16.3234 20.7203C16.3234 26.4493 20.982 31.1079 26.711 31.1079C29.1345 31.1079 31.49 30.2547 33.3482 28.7105C34.3323 27.894 35.7874 28.0275 36.604 29.0089C36.9961 29.4802 37.185 30.088 37.129 30.6986C37.0731 31.3091 36.7769 31.8725 36.3056 32.2647C33.6204 34.4998 30.2102 35.7298 26.711 35.7298ZM6.73664 13.4733C3.02285 13.4733 0 10.4504 0 6.73664C0 3.02285 3.02285 0 6.73664 0C10.453 0 13.4733 3.02285 13.4733 6.73664C13.4733 10.4504 10.453 13.4733 6.73664 13.4733ZM6.73664 4.62457C5.57199 4.62457 4.62457 5.57199 4.62457 6.73664C4.62457 7.90129 5.57199 8.84871 6.73664 8.84871C7.90129 8.84871 8.84871 7.90129 8.84871 6.73664C8.85133 5.57199 7.90391 4.62457 6.73664 4.62457Z" fill="#00BC07"/>
</svg>
